<?xml version="1.0" encoding="utf-8"?>
<!-- Generator: Adobe Illustrator 23.0.5, SVG Export Plug-In . SVG Version: 6.00 Build 0)  -->
<svg version="1.1" id="Layer_1" xmlns="http://www.w3.org/2000/svg" xmlns:xlink="http://www.w3.org/1999/xlink" x="0px" y="0px"
	 viewBox="0 0 689 64" style="enable-background:new 0 0 689 64;" xml:space="preserve">
<style type="text/css">
	.st0{fill:none;}
	.st1{fill:#FFFFFF;}
	.st2{fill:#6772E5;}
	.st3{fill:#D9222A;}
	.st4{fill:#EE9F2D;}
	.st5{fill:#0E4595;}
	.st6{fill:#F2AE14;}
	.st7{fill:#306FC5;}
	.st8{fill:#202121;}
	.st9{fill:#F3F3F3;}
	.st10{fill:#28356A;}
	.st11{fill:#298FC2;}
	.st12{fill:#22284F;}
</style>
<g>
	<path class="st0" d="M22.38,10.13c-3.38,0-6.13,2.75-6.13,6.13v6.13H28.5v-6.13C28.5,12.87,25.75,10.13,22.38,10.13z"/>
	<rect x="19.81" y="35.06" class="st0" width="5.13" height="12.25"/>
	<path d="M35.63,16.25C35.63,8.94,29.68,3,22.38,3S9.13,8.94,9.13,16.25v8.13H2V58h40.75V24.38h-7.13V16.25z M26.94,49.31h-9.13
		V33.06h9.13V49.31z M30.5,24.38H14.25v-8.13c0-4.48,3.65-8.13,8.13-8.13s8.13,3.65,8.13,8.13V24.38z"/>
	<path class="st1" d="M22.38,9.13c-3.94,0-7.13,3.19-7.13,7.13v7.13H29.5v-7.13C29.5,12.31,26.31,9.13,22.38,9.13z M28.5,22.38
		H16.25v-6.13c0-3.38,2.75-6.13,6.13-6.13s6.13,2.75,6.13,6.13V22.38z"/>
	<path class="st1" d="M25.94,34.06h-7.13v14.25h7.13V34.06z M24.94,47.31h-5.13V35.06h5.13V47.31z"/>
	<path class="st1" d="M37.63,22.38v-6.13C37.63,7.84,30.78,1,22.38,1S7.13,7.84,7.13,16.25v6.13H0V60h44.75V22.38H37.63z M43.75,59
		H1V23.38h7.13v-7.13C8.13,8.38,14.5,2,22.38,2c7.87,0,14.25,6.38,14.25,14.25v7.13h7.13V59z"/>
	<path class="st1" d="M36.63,16.25C36.63,8.38,30.24,2,22.38,2C14.5,2,8.13,8.38,8.13,16.25v7.13H1V59h42.75V23.38h-7.13V16.25z
		 M42.75,24.38V58H2V24.38h7.13v-8.13C9.13,8.94,15.07,3,22.38,3s13.25,5.94,13.25,13.25v8.13H42.75z"/>
	<path class="st1" d="M17.81,49.31h9.13V33.06h-9.13V49.31z M18.81,34.06h7.13v14.25h-7.13V34.06z"/>
	<path class="st1" d="M22.38,8.13c-4.48,0-8.13,3.65-8.13,8.13v8.13H30.5v-8.13C30.5,11.77,26.85,8.13,22.38,8.13z M29.5,23.38
		H15.25v-7.13c0-3.94,3.19-7.13,7.13-7.13s7.13,3.19,7.13,7.13V23.38z"/>
</g>
<g>
	<path class="st0" d="M167.78,24.07c-2.31,0-3.77,0.81-4.83,1.99l0.04,15.05c0.97,1.05,2.39,1.91,4.79,1.91
		c3.73,0,6.25-4.06,6.25-9.49C174.03,28.2,171.47,24.07,167.78,24.07z"/>
	<path class="st0" d="M201.32,23.3c-2.56,0-5.35,1.91-5.35,6.49h10.46C206.43,25.2,203.79,23.3,201.32,23.3z"/>
	<path class="st2" d="M201.36,15.06c-9.65,0-15.49,8.19-15.49,18.49c0,12.21,6.89,18.37,16.79,18.37c4.83,0,8.48-1.1,11.23-2.64
		v-8.11c-2.76,1.38-5.92,2.23-9.94,2.23c-3.93,0-7.42-1.38-7.87-6.16h19.83c0-0.53,0.08-2.64,0.08-3.61
		C216,23.26,210.97,15.06,201.36,15.06z M195.97,29.78c0-4.58,2.8-6.49,5.35-6.49c2.47,0,5.11,1.91,5.11,6.49H195.97z"/>
	<path class="st2" d="M170.21,15.06c-3.97,0-6.53,1.87-7.95,3.16l-0.53-2.51h-8.92V63l10.14-2.15l0.04-11.48
		c1.46,1.05,3.61,2.56,7.18,2.56c7.26,0,13.87-5.84,13.87-18.7C184,21.47,177.31,15.06,170.21,15.06z M167.78,43.01
		c-2.39,0-3.81-0.85-4.79-1.91l-0.04-15.05c1.05-1.18,2.51-1.99,4.83-1.99c3.69,0,6.25,4.14,6.25,9.45
		C174.03,38.95,171.51,43.01,167.78,43.01z"/>
	<path class="st2" d="M107.68,6.95l-9.9,2.11l-0.04,32.48c0,6,4.5,10.42,10.5,10.42c3.33,0,5.76-0.61,7.1-1.34V42.4
		c-1.3,0.53-7.71,2.39-7.71-3.61v-14.4h7.71v-8.64h-7.71L107.68,6.95z"/>
	<path class="st2" d="M127.95,18.75l-0.65-3h-8.76v35.49h10.14V27.19c2.39-3.12,6.45-2.56,7.71-2.11v-9.33
		C135.09,15.27,130.35,14.37,127.95,18.75z"/>
	<polygon class="st2" points="138.86,12.67 149.04,10.48 149.04,2.25 138.86,4.4 	"/>
	<path class="st2" d="M80.26,26.05c0-1.58,1.3-2.19,3.45-2.19c3.08,0,6.98,0.93,10.06,2.6v-9.53c-3.37-1.34-6.69-1.87-10.06-1.87
		c-8.23,0-13.71,4.3-13.71,11.48c0,11.19,15.41,9.41,15.41,14.23c0,1.87-1.62,2.47-3.89,2.47c-3.37,0-7.66-1.38-11.07-3.24v9.65
		c3.77,1.62,7.58,2.31,11.07,2.31c8.44,0,14.24-4.18,14.24-11.44C95.71,28.45,80.26,30.6,80.26,26.05z"/>
	<rect x="138.86" y="15.75" class="st2" width="10.18" height="35.49"/>
	<path d="M299.41,23.77c0.05,0.12,0.1,0.25,0.15,0.37C299.51,24.02,299.46,23.89,299.41,23.77z"/>
	<path d="M336.83,2.08h-86.65c-2.86,0-5.17,2.32-5.17,5.17v50.57c0,2.86,2.32,5.17,5.17,5.17h86.65c2.86,0,5.17-2.32,5.17-5.17V7.26
		C342,4.4,339.68,2.08,336.83,2.08z M329.96,46.23c-0.41,0-0.75-0.34-0.75-0.75s0.34-0.75,0.75-0.75c0.41,0,0.75,0.34,0.75,0.75
		S330.37,46.23,329.96,46.23z M309.08,55.76c-6,0-11.46-2.27-15.58-6.01c0,0,0,0,0,0c-4.12,3.73-9.59,6.01-15.59,6.01
		c-12.82,0-23.22-10.39-23.22-23.22c0-12.82,10.39-23.22,23.22-23.22c6,0,11.46,2.28,15.58,6.01c4.12-3.73,9.59-6.01,15.58-6.01
		c12.82,0,23.22,10.4,23.22,23.22C332.3,45.36,321.91,55.76,309.08,55.76z"/>
	<path d="M298.95,22.71L298.95,22.71c0.03,0.08,0.07,0.16,0.1,0.24C299.02,22.87,298.99,22.79,298.95,22.71z"/>
	<path d="M299.93,25.17c-0.02-0.07-0.05-0.14-0.08-0.22C299.88,25.02,299.9,25.1,299.93,25.17L299.93,25.17z"/>
	<path d="M300.61,27.63L300.61,27.63c0,0.03,0.01,0.06,0.02,0.09C300.62,27.68,300.62,27.65,300.61,27.63z"/>
	<path d="M300.48,38c-0.02,0.07-0.03,0.14-0.05,0.21C300.45,38.14,300.46,38.07,300.48,38z"/>
	<path d="M300.78,28.54c0.02,0.12,0.04,0.23,0.06,0.35C300.82,28.77,300.8,28.65,300.78,28.54z"/>
	<path d="M298.95,42.38L298.95,42.38c-0.02,0.03-0.03,0.06-0.04,0.09C298.92,42.43,298.94,42.4,298.95,42.38z"/>
	<path d="M294.83,48.44c-0.08,0.08-0.16,0.16-0.23,0.25C294.67,48.6,294.75,48.52,294.83,48.44z"/>
	<path d="M297.61,44.83c0.02-0.03,0.04-0.07,0.06-0.1C297.65,44.77,297.63,44.8,297.61,44.83L297.61,44.83z"/>
	<path d="M329.94,45.27h-0.08v0.17h0.09c0.03,0,0.07,0,0.09-0.01c0.03-0.02,0.04-0.05,0.04-0.08c0-0.03-0.02-0.05-0.04-0.07
		C330.01,45.27,329.96,45.27,329.94,45.27z"/>
	<path d="M329.96,44.91c-0.32,0-0.57,0.25-0.57,0.57c0,0.31,0.25,0.57,0.57,0.57c0.31,0,0.57-0.26,0.57-0.57
		C330.53,45.17,330.27,44.91,329.96,44.91z M330.07,45.81l-0.1-0.26h-0.11v0.26h-0.15v-0.66h0.28c0.06,0,0.12,0,0.17,0.03
		c0.05,0.04,0.08,0.1,0.08,0.17c0,0.07-0.04,0.14-0.11,0.17l0.12,0.29H330.07z"/>
	<path d="M299.93,39.92c0.01-0.04,0.02-0.09,0.04-0.13C299.96,39.83,299.94,39.87,299.93,39.92L299.93,39.92z"/>
	<path d="M296.67,18.87c0.08,0.1,0.15,0.21,0.22,0.31C296.82,19.08,296.75,18.97,296.67,18.87z"/>
	<path d="M295.85,17.79L295.85,17.79c0.02,0.02,0.03,0.05,0.05,0.07C295.88,17.84,295.86,17.81,295.85,17.79z"/>
	<path d="M297.61,20.25c-0.04-0.07-0.09-0.13-0.14-0.2C297.52,20.12,297.57,20.18,297.61,20.25L297.61,20.25z"/>
	<polygon class="st3" points="300.86,29.03 300.86,29.02 300.86,29.03 	"/>
	<path class="st3" d="M294.83,48.44c0.35-0.37,0.69-0.75,1.01-1.15h-4.69c-0.64-0.78-1.23-1.6-1.77-2.46h8.22
		c0.02-0.03,0.04-0.07,0.07-0.1c0.45-0.73,0.86-1.49,1.23-2.27c0.01-0.03,0.03-0.06,0.04-0.09h-10.9c-0.37-0.8-0.7-1.62-0.98-2.46
		h12.86c0.01-0.04,0.03-0.09,0.04-0.13c0.17-0.52,0.32-1.04,0.46-1.57c0.02-0.07,0.03-0.14,0.05-0.21c0.03-0.11,0.04-0.22,0.07-0.32
		c-0.55-0.84-0.86-1.93-0.86-3.25c0-0.68,0.06-1.34,0.18-1.96c-0.88-0.02-1.32,0.16-1.47,0.67c-0.32,1.02-0.6,2.73-1.02,5.52h-0.62
		c-0.03,0.23-0.07,0.46-0.11,0.7h-2.52l0.11-0.64c0.44-2.97,1-5.97,1.32-8.93h0.64c0.03-0.23,0.06-0.47,0.09-0.7h2.32
		c0.02,0.49-0.09,0.96-0.15,1.45c0.73-1.07,1.3-1.66,2.26-1.53c0.03,0,0.05,0.01,0.08,0.01c0.03,0,0.05,0,0.08,0.01
		c-0.01-0.04-0.01-0.09-0.02-0.13c-0.02-0.12-0.04-0.23-0.06-0.35c-0.05-0.28-0.1-0.55-0.16-0.82c-0.01-0.03-0.01-0.06-0.02-0.09
		h-14.21l-0.29,1.45h1.29l-0.34,2.3h-0.39l-0.1,0.7h-0.91c-0.27,1.66-0.59,3.43-0.6,3.69c0,0.5,0.26,0.71,0.86,0.71
		c0.24,0,0.42-0.02,0.58-0.07c-0.07-0.36-0.11-0.74-0.11-1.17c0-2.15,0.81-3.9,2.07-4.87c0.77-0.94,1.83-1.51,3.04-1.51
		c2.07,0,3.38,1.35,3.38,3.47c0,0.7-0.09,1.39-0.31,2.36h-0.58c-0.04,0.22-0.09,0.45-0.14,0.7h-4.24c0.18,0.88,0.97,1.27,2.15,1.27
		c0.9,0,1.71-0.19,2.6-0.6l-0.42,2.38c-0.21,0.06-0.42,0.1-0.63,0.14l-0.1,0.55c-0.86,0.26-1.69,0.39-2.57,0.39
		c-2.28,0-3.65-0.98-4.1-2.85l-0.29,1.84c-0.23,0.07-0.44,0.13-0.64,0.17l-0.08,0.53c-0.69,0.22-1.23,0.31-1.81,0.31
		c-1.29,0-1.99-0.74-1.99-2.1c0-0.02,0-0.05,0-0.07c-0.19,0.35-0.47,0.64-0.82,0.87c-0.58,0.88-1.69,1.31-3.4,1.31
		c-1.54-0.04-2.05-0.16-2.62-0.28c0-0.03,0.04-0.28,0.09-0.58h-0.56c-0.04,0.3-0.07,0.55-0.09,0.7h-2.09l0.05-0.99
		c-0.64,0.78-1.49,1.16-2.64,1.16c-1.37,0-2.3-1.07-2.3-2.62c0-0.19,0.03-0.35,0.05-0.53l-0.38,2.28h-0.61l-0.12,0.7h-2.52
		l1.06-6.63l-2.11,5.93h-0.48l-0.25,0.7h-1.72l-0.14-5.84l-0.87,5.14h-0.61l-0.12,0.7h-2.36l1.97-11.78h0.61l0.12-0.7h3.62
		l0.08,5.55l1.63-4.85h0.61l0.23-0.7h3.91l-1.5,9.03c0.19-0.79,0.61-1.41,1.24-1.87c0.72-0.99,2.02-1.53,3.78-1.53
		c0.12,0,0.25,0.01,0.39,0.02c-0.06-0.53-0.52-0.74-1.6-0.74c-1.23-0.01-2.25,0.29-2.67,0.43c0.03-0.16,0.35-2.15,0.35-2.15
		c0.23-0.07,0.43-0.12,0.64-0.17c0.05-0.3,0.08-0.52,0.08-0.52c1.26-0.37,2.08-0.51,3.02-0.51c2.15,0,3.3,0.96,3.31,2.78
		c0.19-0.59,0.54-1.1,1.11-1.47c0.55-0.79,1.57-1.31,3.24-1.31c0.58,0,1.57,0.08,2.22,0.19l-0.36,2.22c-0.2-0.03-0.4-0.05-0.6-0.07
		l-0.12,0.77c-0.64-0.09-1.32-0.14-1.81-0.14c-0.19,0-0.35,0.02-0.5,0.05c0,0.01-0.01,0.02-0.01,0.04c0,0.45,0.12,0.55,1.18,1.04
		c1.03,0.47,1.55,1.08,1.71,1.99c0-0.03,0.01-0.05,0.01-0.08c0.15-0.89,1.09-6.54,1.09-6.54h0.61c0.07-0.42,0.12-0.7,0.12-0.7h2.5
		c0.18-0.84,0.41-1.66,0.67-2.46h12.86c-0.02-0.07-0.05-0.14-0.07-0.22c-0.09-0.27-0.19-0.54-0.3-0.81
		c-0.05-0.12-0.1-0.25-0.15-0.37c-0.11-0.28-0.23-0.55-0.36-0.82c-0.04-0.08-0.07-0.16-0.11-0.24h-10.9
		c0.4-0.85,0.84-1.67,1.34-2.46h8.22c-0.04-0.07-0.09-0.13-0.13-0.2c-0.19-0.29-0.38-0.58-0.58-0.87c-0.07-0.1-0.15-0.21-0.22-0.31
		c-0.25-0.34-0.51-0.68-0.78-1.01c-0.02-0.02-0.03-0.05-0.05-0.07h-4.69c0.72-0.87,1.51-1.7,2.34-2.46c0,0,0,0,0,0
		c-4.12-3.73-9.59-6.01-15.58-6.01c-12.82,0-23.22,10.39-23.22,23.22c0,12.82,10.39,23.22,23.22,23.22c6,0,11.47-2.28,15.59-6.01
		c0.38-0.34,0.74-0.7,1.09-1.07C294.67,48.6,294.75,48.52,294.83,48.44z"/>
	<path class="st3" d="M277.76,35.48c-1.19-0.56-1.78-1.28-1.9-2.29c-0.02,0.12-0.04,0.25-0.06,0.38c-0.13,0.85-0.36,2.3-0.53,3.46
		c0.19,0.06,0.37,0.09,0.55,0.14c0.07-0.45,0.13-0.85,0.13-0.85c0.81,0.26,1.51,0.38,2.26,0.38c0.28,0,0.5-0.03,0.7-0.07
		c0-0.04,0.02-0.06,0.02-0.1C278.94,36.1,278.78,35.96,277.76,35.48z"/>
	<path class="st3" d="M291.8,32.75c-0.06-0.48-0.31-1.01-1.17-1.01c-0.2,0-0.38,0.04-0.55,0.11c-0.14,0.25-0.25,0.55-0.33,0.9H291.8
		z"/>
	<path class="st3" d="M271.93,35.05c-0.54,0-0.98,0.07-1.32,0.21c-0.07,0.16-0.1,0.34-0.1,0.55c0,0.6,0.35,0.98,0.9,0.98
		c0.24,0,0.46-0.06,0.67-0.16c0.25-0.4,0.4-0.93,0.42-1.54C272.23,35.05,272.11,35.05,271.93,35.05z"/>
	<path class="st4" d="M324.32,32.03c-0.24,0-0.46,0.07-0.66,0.18c-0.36,0.57-0.57,1.38-0.57,2.34c0,1.25,0.43,1.89,1.29,1.89
		c0.25,0,0.49-0.07,0.7-0.19c0.36-0.57,0.57-1.38,0.57-2.34C325.65,32.69,325.18,32.03,324.32,32.03z"/>
	<path class="st4" d="M329.38,37.9c0,0.31,0.26,0.57,0.57,0.57c0.32,0,0.57-0.26,0.57-0.57c0-0.31-0.25-0.57-0.57-0.57
		C329.64,37.33,329.38,37.59,329.38,37.9z M330.15,37.61c0.05,0.04,0.08,0.1,0.08,0.16c0,0.07-0.04,0.14-0.11,0.17l0.12,0.29h-0.17
		l-0.1-0.26h-0.11v0.26h-0.15v-0.66h0.28C330.04,37.57,330.1,37.57,330.15,37.61z"/>
	<path class="st4" d="M311.11,36.78c0.24,0,0.46-0.06,0.67-0.16c0.25-0.4,0.4-0.93,0.42-1.54c-0.26-0.03-0.38-0.04-0.56-0.04
		c-0.54,0-0.98,0.07-1.32,0.21c-0.06,0.16-0.1,0.34-0.1,0.55C310.21,36.4,310.56,36.78,311.11,36.78z"/>
	<path class="st4" d="M330.03,37.84c0.03-0.02,0.04-0.05,0.04-0.08c0-0.02-0.02-0.05-0.04-0.07c-0.03-0.02-0.07-0.01-0.1-0.01h-0.08
		v0.17h0.08C329.97,37.86,330,37.86,330.03,37.84z"/>
	<path class="st4" d="M309.08,9.33c-6,0-11.46,2.28-15.58,6.01c0.84,0.76,1.62,1.58,2.34,2.46h0c0.02,0.02,0.03,0.05,0.05,0.07
		c0.27,0.33,0.53,0.66,0.78,1.01c0.08,0.1,0.15,0.21,0.22,0.31c0.2,0.28,0.4,0.57,0.58,0.87c0.04,0.07,0.09,0.13,0.14,0.2h-0.01
		c0.49,0.79,0.94,1.61,1.34,2.46h0c0.04,0.08,0.07,0.16,0.1,0.24c0.12,0.27,0.24,0.54,0.36,0.82c0.05,0.12,0.1,0.25,0.15,0.37
		c0.1,0.27,0.2,0.54,0.3,0.81c0.03,0.07,0.05,0.14,0.08,0.22h-0.01c0.27,0.8,0.5,1.62,0.68,2.46h0c0.01,0.03,0.01,0.06,0.02,0.09
		c0.06,0.27,0.11,0.55,0.16,0.82c0.02,0.12,0.04,0.23,0.06,0.35c0.01,0.05,0.02,0.09,0.02,0.14c0.12,0.02,0.24,0.04,0.38,0.09
		c0.61-0.84,1.37-1.47,2.26-1.84c0.76-0.44,1.63-0.69,2.58-0.69c1.1,0,2.4,0.47,2.77,0.61l-0.41,2.56c-0.2-0.1-0.39-0.19-0.57-0.26
		l-0.15,0.96c-0.9-0.45-1.55-0.64-2.25-0.64c-0.59,0-1.11,0.19-1.56,0.51c-0.58,0.78-0.91,1.89-0.91,3.2c0,1.79,0.89,2.87,2.35,2.87
		c0.54,0,1.13-0.16,1.82-0.46c0.19-0.8,0.61-1.43,1.25-1.89c0.72-0.99,2.02-1.54,3.78-1.54c0.12,0,0.25,0.01,0.39,0.02
		c-0.06-0.53-0.52-0.74-1.6-0.74c-1.23-0.01-2.25,0.29-2.67,0.43c0.03-0.16,0.35-2.15,0.35-2.15c0.23-0.07,0.43-0.12,0.64-0.17
		c0.05-0.3,0.09-0.52,0.09-0.52c1.26-0.37,2.08-0.51,3.02-0.51c2.17,0,3.31,0.97,3.31,2.81c0,0.49-0.08,1.1-0.2,1.9
		c-0.22,1.39-0.69,4.36-0.75,5.08h-0.64c-0.04,0.3-0.07,0.55-0.09,0.7h-2.09l0.05-0.99c-0.64,0.78-1.49,1.16-2.64,1.16
		c-1.1,0-1.91-0.7-2.19-1.77l-0.12,0.73c-0.23,0.06-0.44,0.12-0.64,0.16l-0.09,0.54c-0.93,0.25-1.53,0.34-2.23,0.34
		c-1.57,0-2.78-0.67-3.54-1.83c-0.02,0.11-0.05,0.21-0.07,0.31c-0.02,0.07-0.03,0.14-0.05,0.21c-0.13,0.53-0.29,1.06-0.46,1.57
		c-0.01,0.04-0.02,0.09-0.04,0.13h-0.01c-0.28,0.84-0.61,1.66-0.98,2.46h0c-0.01,0.03-0.03,0.06-0.04,0.09
		c-0.37,0.78-0.78,1.54-1.23,2.27c-0.02,0.03-0.04,0.07-0.06,0.1h-0.01c-0.81,1.29-1.74,2.5-2.78,3.6
		c-0.08,0.08-0.16,0.16-0.23,0.25c-0.35,0.37-0.72,0.72-1.09,1.07c0,0,0,0,0,0c4.12,3.73,9.59,6.01,15.58,6.01
		c12.82,0,23.22-10.39,23.22-23.22C332.3,19.72,321.91,9.33,309.08,9.33z M330.7,37.9c0,0.41-0.34,0.75-0.75,0.75
		c-0.41,0-0.75-0.34-0.75-0.75c0-0.42,0.34-0.75,0.75-0.75C330.37,37.15,330.7,37.49,330.7,37.9z M326.81,27.58h0.61l0.11-0.7h2.49
		l-1.92,11.77h-0.61l-0.11,0.7h-2.38l0.12-0.89c-0.69,0.74-1.4,1.06-2.32,1.06c-1.83,0-3.04-1.58-3.04-3.97
		c0-1.1,0.23-2.17,0.61-3.11c-0.45-0.02-0.78,0.15-1.11,0.42c-0.37,0.98-0.65,2.74-1.12,5.8h-0.62c-0.04,0.23-0.07,0.46-0.11,0.7
		h-2.52l0.12-0.64c0.44-2.97,1-5.97,1.31-8.93h0.64c0.03-0.23,0.06-0.47,0.09-0.7h2.32c0.02,0.49-0.09,0.96-0.15,1.45
		c0.77-1.13,1.36-1.73,2.42-1.51c-0.31,0.53-0.73,1.58-0.96,2.78c0,0,0,0-0.01,0c0,0,0,0,0.01,0c0.49-0.92,1.16-1.65,1.91-2.05
		c0.6-0.49,1.28-0.78,2-0.78c0.74,0,1.34,0.23,1.89,0.73L326.81,27.58z"/>
	<path class="st4" d="M291.15,17.79h4.69c-0.72-0.88-1.5-1.7-2.34-2.46c0,0,0,0,0,0C292.66,16.1,291.88,16.92,291.15,17.79z"/>
	<path class="st4" d="M300.86,29.02C300.86,29.02,300.86,29.02,300.86,29.02C300.86,29.02,300.86,29.02,300.86,29.02
		c0,0.01,0,0.01,0.01,0.01c-0.01-0.05-0.02-0.09-0.02-0.14C300.85,28.93,300.85,28.97,300.86,29.02
		C300.86,29.02,300.86,29.02,300.86,29.02z"/>
	<path class="st4" d="M294.6,48.68c-0.35,0.37-0.72,0.72-1.09,1.07C293.88,49.41,294.24,49.05,294.6,48.68z"/>
	<path class="st4" d="M288.05,42.38h10.9c0.37-0.8,0.7-1.62,0.98-2.46h-12.86C287.35,40.76,287.67,41.58,288.05,42.38z"/>
	<path class="st4" d="M300.48,38c0.03-0.1,0.05-0.21,0.07-0.31c0,0,0-0.01-0.01-0.01C300.52,37.79,300.51,37.9,300.48,38z"/>
	<path class="st4" d="M299.06,22.95c0.12,0.27,0.24,0.54,0.36,0.82C299.3,23.49,299.18,23.22,299.06,22.95z"/>
	<path class="st4" d="M298.91,42.46c-0.37,0.78-0.78,1.54-1.23,2.27C298.13,44,298.54,43.24,298.91,42.46z"/>
	<path class="st4" d="M300.43,38.21c-0.13,0.53-0.29,1.06-0.46,1.57C300.14,39.27,300.3,38.74,300.43,38.21z"/>
	<path class="st4" d="M288.05,22.71h10.9c-0.4-0.85-0.85-1.67-1.34-2.46h-8.22C288.89,21.04,288.44,21.86,288.05,22.71z"/>
	<path class="st4" d="M286.39,27.63L286.39,27.63h14.22c-0.18-0.84-0.41-1.66-0.68-2.46h-12.86
		C286.8,25.97,286.57,26.79,286.39,27.63z"/>
	<path class="st4" d="M296.9,19.18c0.2,0.28,0.4,0.57,0.58,0.87C297.29,19.76,297.1,19.47,296.9,19.18z"/>
	<path class="st4" d="M295.9,17.86c0.27,0.33,0.53,0.66,0.78,1.01C296.42,18.52,296.16,18.19,295.9,17.86z"/>
	<path class="st4" d="M299.56,24.14c0.1,0.27,0.2,0.54,0.3,0.81C299.76,24.68,299.66,24.41,299.56,24.14z"/>
	<path class="st4" d="M291.15,47.29h4.69c-0.32,0.39-0.67,0.77-1.01,1.15c1.04-1.1,1.97-2.31,2.78-3.6h-8.22
		C289.92,45.69,290.51,46.51,291.15,47.29z"/>
	<path class="st4" d="M300.63,27.71c0.06,0.27,0.11,0.55,0.16,0.82C300.73,28.26,300.68,27.99,300.63,27.71z"/>
	<path d="M330.23,45.35c0-0.07-0.03-0.13-0.08-0.17c-0.05-0.03-0.11-0.03-0.17-0.03h-0.28v0.66h0.15v-0.26h0.11l0.1,0.26h0.17
		l-0.12-0.29C330.19,45.49,330.23,45.43,330.23,45.35z M330.03,45.43c-0.03,0.02-0.06,0.01-0.09,0.01h-0.09v-0.17h0.08
		c0.03,0,0.07,0,0.1,0.01c0.02,0.01,0.04,0.04,0.04,0.07C330.07,45.38,330.06,45.41,330.03,45.43z"/>
	<path d="M329.96,44.73c-0.41,0-0.75,0.34-0.75,0.75s0.34,0.75,0.75,0.75c0.41,0,0.75-0.34,0.75-0.75S330.37,44.73,329.96,44.73z
		 M329.96,46.05c-0.32,0-0.57-0.26-0.57-0.57c0-0.32,0.25-0.57,0.57-0.57c0.31,0,0.57,0.25,0.57,0.57
		C330.53,45.8,330.27,46.05,329.96,46.05z"/>
	<path d="M273.62,31.96c0-0.63-0.44-0.87-1.62-0.87c-1.23-0.01-2.25,0.29-2.67,0.43c0.02-0.11,0.17-1.03,0.26-1.63
		c-0.21,0.05-0.41,0.1-0.64,0.17c0,0-0.32,2-0.35,2.15c0.42-0.14,1.43-0.45,2.67-0.43c1.09,0,1.54,0.21,1.6,0.74
		c0.2,0.01,0.42,0.03,0.64,0.06C273.6,32.27,273.62,32.13,273.62,31.96z"/>
	<path d="M270.61,35.26c0.34-0.14,0.78-0.21,1.32-0.21c0.18,0,0.3,0.01,0.56,0.04c-0.02,0.61-0.17,1.13-0.42,1.54
		c0.67-0.33,1.11-1.15,1.14-2.24c-0.26-0.03-0.38-0.04-0.56-0.04C271.53,34.35,270.85,34.66,270.61,35.26z"/>
	<path d="M273.01,37.66c-0.64,0.78-1.49,1.16-2.64,1.16c-1.37,0-2.3-1.07-2.3-2.62c0-0.86,0.22-1.58,0.64-2.16
		c-0.63,0.45-1.05,1.08-1.24,1.87l-0.08,0.46c-0.02,0.17-0.05,0.34-0.05,0.53c0,1.55,0.94,2.62,2.3,2.62c1.15,0,2-0.37,2.64-1.16
		l-0.05,0.99h2.09c0.01-0.15,0.05-0.4,0.09-0.7h-1.45L273.01,37.66z"/>
	<polygon points="260.78,29.65 260.13,33.51 260.27,39.35 261.99,39.35 262.24,38.65 261,38.65 	"/>
	<polygon points="258.76,27.58 258.15,27.58 256.18,39.35 258.54,39.35 258.66,38.65 256.91,38.65 	"/>
	<polygon points="264.81,27.58 264.21,27.58 262.58,32.43 262.6,34.17 	"/>
	<polygon points="265.94,29.6 264.82,32.72 263.77,39.35 266.29,39.35 266.4,38.65 264.49,38.65 	"/>
	<path d="M313.32,31.96c0-0.63-0.44-0.87-1.62-0.87c-1.23-0.01-2.25,0.29-2.67,0.43c0.02-0.11,0.17-1.03,0.26-1.63
		c-0.21,0.05-0.41,0.1-0.64,0.17c0,0-0.32,2-0.35,2.15c0.42-0.14,1.44-0.45,2.67-0.43c1.09,0,1.54,0.21,1.6,0.74
		c0.2,0.01,0.42,0.03,0.64,0.06C313.3,32.27,313.32,32.13,313.32,31.96z"/>
	<path d="M307.16,37.75c0.28,1.07,1.09,1.77,2.19,1.77c1.15,0,2-0.37,2.64-1.16l-0.05,0.99h2.09c0.01-0.15,0.05-0.4,0.09-0.7h-1.45
		l0.05-0.99c-0.64,0.78-1.49,1.16-2.64,1.16c-1.37,0-2.3-1.07-2.3-2.62c0-0.86,0.22-1.58,0.64-2.16c-0.64,0.46-1.06,1.09-1.25,1.89
		c0.11-0.05,0.21-0.09,0.32-0.14L307.16,37.75z"/>
	<path d="M312.2,35.08c-0.02,0.61-0.17,1.13-0.42,1.54c0.67-0.33,1.11-1.15,1.14-2.24c-0.26-0.03-0.38-0.04-0.56-0.04
		c-1.13,0-1.81,0.31-2.05,0.91c0.34-0.14,0.78-0.21,1.32-0.21C311.82,35.05,311.93,35.05,312.2,35.08z"/>
	<path d="M282.45,36.71c-0.02-0.42,0.19-1.54,0.35-2.55c0.11-0.7,0.72-4.3,0.98-5.84h-0.61c0,0-0.95,5.64-1.09,6.54
		c0,0.03-0.01,0.05-0.01,0.08c0.04,0.21,0.06,0.43,0.06,0.68c0,0.7-0.14,1.26-0.39,1.72c0,0.02,0,0.05,0,0.07
		c0,1.36,0.7,2.1,1.99,2.1c0.58,0,1.12-0.09,1.81-0.31l0.08-0.53c-0.41,0.09-0.78,0.14-1.17,0.14
		C283.15,38.82,282.45,38.08,282.45,36.71z"/>
	<path d="M285.64,32.08h0.91l0.1-0.7h-0.9C285.72,31.6,285.68,31.84,285.64,32.08z"/>
	<path d="M289.6,35.38h4.24c0.06-0.25,0.1-0.48,0.14-0.7h-4.41C289.54,34.95,289.56,35.17,289.6,35.38z"/>
	<path d="M286.54,36.67c0.44,1.87,1.82,2.85,4.1,2.85c0.88,0,1.71-0.13,2.57-0.39l0.1-0.55c-0.64,0.15-1.28,0.25-1.94,0.24
		c-2.8,0-4.27-1.47-4.27-4.27c0-1.7,0.51-3.16,1.34-4.17c-1.26,0.97-2.07,2.73-2.07,4.87c0,0.42,0.04,0.81,0.11,1.17
		c0.03-0.01,0.07-0.01,0.1-0.02L286.54,36.67z"/>
	<path d="M291.8,32.75h0.72c0.02-0.2,0.27-1.71-1.17-1.71c-0.54,0-0.97,0.29-1.27,0.81c0.17-0.07,0.35-0.11,0.55-0.11
		C291.49,31.74,291.74,32.28,291.8,32.75z"/>
	<path d="M279.17,31.87c0.15-0.03,0.31-0.05,0.5-0.05c0.49,0,1.17,0.05,1.81,0.14l0.12-0.77c-0.44-0.05-0.87-0.07-1.21-0.07
		C279.61,31.12,279.2,31.38,279.17,31.87z"/>
	<path d="M275.61,38.53c0.01-0.06,0.12-0.77,0.21-1.37c-0.18-0.05-0.36-0.08-0.55-0.14c-0.11,0.73-0.19,1.34-0.22,1.62h-0.08
		c-0.05,0.31-0.09,0.55-0.09,0.58c0.57,0.13,1.08,0.24,2.62,0.28c1.71,0,2.82-0.43,3.4-1.31c-0.63,0.4-1.51,0.61-2.68,0.61
		C276.69,38.77,276.18,38.66,275.61,38.53z"/>
	<path d="M275.86,33.18c0.12,1.01,0.71,1.73,1.9,2.29c1.02,0.48,1.18,0.62,1.18,1.06c0,0.04-0.02,0.06-0.02,0.1
		c0.5-0.11,0.75-0.37,0.75-0.8c0-0.43-0.16-0.58-1.18-1.06c-1.33-0.63-1.92-1.46-1.92-2.67c0-0.72,0.17-1.39,0.55-1.93
		c-0.57,0.37-0.92,0.88-1.11,1.47c0,0.01,0,0.02,0,0.03C276.01,32.08,275.95,32.57,275.86,33.18z"/>
	<path d="M300.96,29.76c0.01,0.11,0.03,0.22,0.04,0.33C300.99,29.98,300.97,29.87,300.96,29.76z"/>
	<path d="M300.83,36.24c-0.01,0.09-0.03,0.17-0.05,0.26C300.8,36.41,300.82,36.33,300.83,36.24z"/>
	<path d="M300.83,36.24c0-0.03,0.01-0.06,0.01-0.09c-0.27-0.7-0.43-1.5-0.43-2.42c0-1.27,0.22-2.43,0.61-3.43
		c-0.01-0.07-0.01-0.15-0.02-0.22c-0.01-0.11-0.03-0.22-0.04-0.33c-0.03-0.24-0.06-0.49-0.1-0.73c0,0,0,0,0,0
		c-0.31,0.53-0.73,1.58-0.95,2.77c-0.74-0.08-1.15,0.21-1.51,1.34c0.15-0.51,0.59-0.69,1.47-0.67c-0.12,0.63-0.18,1.28-0.18,1.96
		c0,1.32,0.31,2.41,0.86,3.25c0.09-0.39,0.17-0.78,0.24-1.18C300.8,36.41,300.82,36.33,300.83,36.24z"/>
	<path d="M300.7,29c0.03,0,0.05,0,0.08,0.01C300.75,29,300.73,29,300.7,29z"/>
	<path d="M294.97,38.01c0.4-2.73,0.9-5.5,1.23-8.23h-0.64c-0.32,2.96-0.88,5.97-1.32,8.93l-0.11,0.64h2.52
		c0.04-0.24,0.07-0.47,0.11-0.7h-1.9L294.97,38.01z"/>
	<path d="M300.85,36.16c0,0.03-0.01,0.06-0.02,0.08c-0.01,0.09-0.03,0.17-0.05,0.26c-0.07,0.4-0.15,0.8-0.24,1.19
		c0.76,1.16,1.97,1.83,3.54,1.83c0.7,0,1.3-0.09,2.23-0.34l0.09-0.54c-0.6,0.13-1.07,0.19-1.59,0.19
		C302.9,38.82,301.51,37.83,300.85,36.16z"/>
	<path d="M301,30.09c0.01,0.07,0.01,0.14,0.02,0.21c0.53-1.35,1.39-2.4,2.48-3.03c-0.88,0.37-1.65,1.01-2.26,1.84
		c-0.14-0.05-0.26-0.07-0.38-0.09c0.04,0.24,0.06,0.49,0.09,0.73C300.97,29.87,300.99,29.98,301,30.09z"/>
	<path d="M303.91,30.33c0.45-0.32,0.98-0.51,1.56-0.51c0.7,0,1.35,0.18,2.25,0.64l0.15-0.96c-0.62-0.26-1.14-0.37-1.68-0.37
		C305.26,29.11,304.47,29.56,303.91,30.33z"/>
	<path d="M300.55,37.68C300.55,37.68,300.55,37.69,300.55,37.68c0.09-0.38,0.17-0.78,0.24-1.18
		C300.72,36.9,300.63,37.29,300.55,37.68z"/>
	<path d="M300.83,36.24c0-0.03,0.01-0.06,0.02-0.08c0,0,0-0.01,0-0.01C300.84,36.18,300.84,36.21,300.83,36.24z"/>
	<path d="M300.96,29.76c-0.03-0.24-0.06-0.49-0.09-0.73c0,0,0,0-0.01,0C300.9,29.27,300.93,29.51,300.96,29.76z"/>
	<path d="M301.02,30.3c-0.01-0.07-0.01-0.14-0.02-0.21C301.01,30.16,301.01,30.24,301.02,30.3C301.02,30.31,301.02,30.3,301.02,30.3
		z"/>
	<polygon class="st1" points="258.66,38.65 259.27,38.65 260.13,33.51 260.06,30.35 	"/>
	<polygon class="st1" points="262.24,38.65 262.71,38.65 264.82,32.72 265.21,30.3 	"/>
	<polygon class="st1" points="262,34.17 262.58,32.43 262.5,26.88 258.88,26.88 258.76,27.58 261.78,27.58 	"/>
	<path class="st1" d="M268.96,26.88h-3.91l-0.23,0.7h3.42l-1.83,11.08h0.61l0.38-2.28c0.02-0.16,0.04-0.31,0.08-0.46L268.96,26.88z"
		/>
	<path class="st1" d="M267.39,36.37l0.08-0.46C267.43,36.06,267.41,36.21,267.39,36.37z"/>
	<polygon class="st1" points="264.81,27.58 262.6,34.17 262.58,32.43 262,34.17 261.78,27.58 258.76,27.58 256.91,38.65 
		258.66,38.65 260.06,30.35 260.13,33.51 260.78,29.65 261,38.65 262.24,38.65 265.21,30.3 264.82,32.72 265.94,29.6 264.49,38.65 
		266.4,38.65 268.24,27.58 	"/>
	<path d="M325.04,31.34c-0.56,0-1.04,0.33-1.39,0.88c0.2-0.11,0.42-0.18,0.66-0.18c0.87,0,1.33,0.66,1.33,1.88
		c0,0.96-0.21,1.77-0.57,2.34c0.78-0.42,1.3-1.55,1.3-3.04C326.38,32,325.91,31.34,325.04,31.34z"/>
	<path d="M325.83,37.76c-0.69,0.74-1.4,1.06-2.32,1.06c-1.83,0-3.04-1.58-3.04-3.97c0-2.15,0.86-4.07,2.1-5.09
		c-0.75,0.4-1.42,1.12-1.91,2.05c0,0,0,0-0.01,0c-0.67-0.07-1.07,0.17-1.41,1.06c0.33-0.27,0.66-0.44,1.11-0.42
		c-0.39,0.93-0.61,2.01-0.61,3.11c0,2.39,1.21,3.97,3.04,3.97c0.92,0,1.63-0.32,2.32-1.06l-0.12,0.89h2.38l0.11-0.7h-1.77
		L325.83,37.76z"/>
	<path d="M327.42,27.58h-0.61l-0.35,2.13c0.18,0.16,0.35,0.35,0.52,0.57L327.42,27.58z"/>
	<path d="M315.71,38.01c0.4-2.73,0.9-5.5,1.23-8.23h-0.64c-0.32,2.96-0.88,5.97-1.31,8.93l-0.12,0.64h2.52
		c0.04-0.24,0.07-0.47,0.11-0.7h-1.9L315.71,38.01z"/>
	<path class="st1" d="M275.27,37.03c0.17-1.16,0.4-2.61,0.53-3.46c0.02-0.14,0.04-0.26,0.06-0.38c-0.01-0.12-0.02-0.25-0.02-0.38
		c0-0.41,0.06-0.8,0.17-1.16c-0.01-1.82-1.15-2.78-3.31-2.78c-0.93,0-1.76,0.14-3.02,0.51c0,0-0.04,0.23-0.08,0.52
		c0.91-0.23,1.62-0.33,2.38-0.33c2.16,0,3.31,0.97,3.31,2.81c0,0.49-0.08,1.1-0.2,1.9c-0.17,1.11-0.51,3.21-0.67,4.39h0.56
		c0.1-0.66,0.26-1.63,0.26-1.63C275.25,37.03,275.26,37.03,275.27,37.03z"/>
	<path class="st1" d="M272.8,33.28c0.08-0.32,0.1-0.45,0.1-0.62c0-0.05-0.01-0.09-0.01-0.14c-0.14-0.01-0.27-0.02-0.39-0.02
		c-1.77,0-3.07,0.55-3.78,1.53c0.75-0.54,1.77-0.84,3.06-0.84C272.05,33.21,272.42,33.23,272.8,33.28z"/>
	<path class="st1" d="M270.51,35.8c0-0.21,0.04-0.38,0.1-0.55c-0.55,0.23-0.83,0.64-0.83,1.24c0,0.6,0.35,0.98,0.9,0.98
		c0.58,0,1.07-0.32,1.39-0.86c-0.2,0.1-0.43,0.16-0.67,0.16C270.86,36.78,270.51,36.4,270.51,35.8z"/>
	<path class="st1" d="M275.28,32.37c0-1.84-1.14-2.81-3.31-2.81c-0.76,0-1.47,0.1-2.38,0.33c-0.1,0.6-0.25,1.52-0.26,1.63
		c0.42-0.14,1.43-0.44,2.67-0.43c1.18,0,1.62,0.24,1.62,0.87c0,0.17-0.02,0.31-0.1,0.62c-0.22-0.03-0.44-0.05-0.64-0.06
		c0.01,0.04,0.01,0.09,0.01,0.14c0,0.17-0.02,0.3-0.1,0.62c-0.38-0.05-0.74-0.07-1.03-0.07c-1.29,0-2.31,0.3-3.06,0.84
		c-0.42,0.58-0.64,1.3-0.64,2.16c0,1.55,0.94,2.62,2.3,2.62c1.15,0,2-0.37,2.64-1.16l-0.05,0.99h1.45c0.16-1.18,0.49-3.28,0.67-4.39
		C275.21,33.47,275.29,32.86,275.28,32.37z M272.08,36.62c-0.32,0.53-0.81,0.86-1.39,0.86c-0.55,0-0.9-0.38-0.9-0.98
		c0-0.6,0.28-1.01,0.83-1.24c0.24-0.6,0.92-0.91,2.05-0.91c0.18,0,0.3,0.01,0.56,0.04C273.19,35.47,272.74,36.29,272.08,36.62z"/>
	<path class="st1" d="M275.27,37.03c-0.01,0-0.03-0.01-0.04-0.01c0,0-0.15,0.97-0.26,1.63h0.08
		C275.08,38.37,275.16,37.76,275.27,37.03z"/>
	<path class="st1" d="M275.86,33.18c0.09-0.61,0.15-1.11,0.15-1.52c0-0.01,0-0.02,0-0.03c-0.11,0.36-0.17,0.75-0.17,1.16
		C275.84,32.93,275.85,33.06,275.86,33.18z"/>
	<path class="st1" d="M308.13,27.89l-0.26,1.6c0.18,0.08,0.37,0.16,0.57,0.26l0.41-2.56c-0.37-0.14-1.67-0.61-2.77-0.61
		c-0.96,0-1.82,0.25-2.58,0.69c0.57-0.24,1.19-0.38,1.86-0.38C306.46,26.9,307.76,27.75,308.13,27.89z"/>
	<path class="st1" d="M302.27,34.22c0,1.79,0.89,2.87,2.35,2.87c0.62,0,1.31-0.19,2.14-0.6l-0.35,2.14c0.2-0.04,0.41-0.1,0.64-0.16
		l0.12-0.73c-0.07-0.26-0.11-0.54-0.11-0.85c0-0.35,0.05-0.67,0.12-0.97c-0.69,0.31-1.28,0.46-1.82,0.46
		c-1.46,0-2.35-1.08-2.35-2.87c0-1.31,0.34-2.42,0.91-3.2C302.9,31.04,302.27,32.44,302.27,34.22z"/>
	<path class="st1" d="M307.16,37.75l0.32-1.96c-0.11,0.05-0.21,0.1-0.32,0.14c-0.07,0.3-0.12,0.62-0.12,0.97
		C307.05,37.2,307.09,37.48,307.16,37.75z"/>
	<path class="st1" d="M301.06,34.26c-0.01,0.12-0.02,0.23-0.03,0.35C301.05,34.49,301.05,34.37,301.06,34.26z"/>
	<path class="st1" d="M301.08,31c0.01,0.1,0.02,0.21,0.02,0.31C301.09,31.21,301.08,31.1,301.08,31z"/>
	<path class="st1" d="M300.41,33.73c0,0.92,0.16,1.72,0.43,2.42c0.08-0.51,0.14-1.02,0.19-1.54c0.01-0.12,0.02-0.23,0.03-0.35
		c0.04-0.57,0.07-1.14,0.07-1.72c0-0.41-0.01-0.82-0.03-1.23c-0.01-0.1-0.02-0.21-0.02-0.31c-0.02-0.23-0.03-0.46-0.06-0.69
		C300.63,31.3,300.41,32.46,300.41,33.73z"/>
	<path class="st1" d="M301.02,30.3c0.02,0.23,0.04,0.47,0.05,0.7c0.01,0.1,0.02,0.21,0.02,0.31c0.02,0.41,0.03,0.82,0.03,1.23
		c0,0.58-0.03,1.15-0.07,1.72c-0.01,0.12-0.02,0.23-0.03,0.35c-0.05,0.52-0.11,1.04-0.19,1.55c0.66,1.67,2.05,2.66,3.97,2.66
		c0.53,0,1-0.05,1.59-0.19l0.35-2.14c-0.84,0.41-1.52,0.6-2.14,0.6c-1.47,0-2.35-1.08-2.35-2.87c0-1.79,0.63-3.19,1.64-3.9
		c0.56-0.76,1.36-1.21,2.29-1.21c0.54,0,1.06,0.11,1.68,0.37l0.26-1.6c-0.37-0.14-1.67-1-2.77-1c-0.66,0-1.29,0.13-1.86,0.38
		C302.41,27.91,301.55,28.95,301.02,30.3z"/>
	<path class="st1" d="M301.13,32.54c0,0.58-0.03,1.15-0.07,1.72C301.1,33.69,301.13,33.12,301.13,32.54z"/>
	<path class="st1" d="M300.85,36.16c0.08-0.51,0.14-1.03,0.19-1.55C300.99,35.13,300.93,35.64,300.85,36.16
		C300.85,36.15,300.85,36.16,300.85,36.16z"/>
	<path class="st1" d="M301.1,31.31c0.02,0.41,0.03,0.82,0.03,1.23C301.13,32.13,301.12,31.72,301.1,31.31z"/>
	<path class="st1" d="M301.08,31c-0.02-0.23-0.03-0.47-0.05-0.7c0,0,0,0,0,0.01C301.04,30.54,301.06,30.77,301.08,31z"/>
	<path class="st1" d="M314.99,32.37c0,0.49-0.08,1.1-0.2,1.9c-0.17,1.11-0.51,3.21-0.67,4.39h0.64c0.06-0.72,0.53-3.7,0.75-5.08
		c0.13-0.8,0.21-1.4,0.2-1.9c0-1.83-1.14-2.81-3.31-2.81c-0.93,0-1.76,0.14-3.02,0.51c0,0-0.04,0.23-0.09,0.52
		c0.91-0.23,1.61-0.33,2.37-0.33C313.84,29.56,314.99,30.53,314.99,32.37z"/>
	<path class="st1" d="M310.39,37.48c0.58,0,1.07-0.32,1.39-0.86c-0.2,0.1-0.43,0.16-0.67,0.16c-0.55,0-0.9-0.38-0.9-0.98
		c0-0.21,0.04-0.38,0.1-0.55c-0.55,0.23-0.83,0.64-0.83,1.24C309.49,37.1,309.84,37.48,310.39,37.48z"/>
	<path class="st1" d="M312.5,33.28c0.08-0.32,0.1-0.45,0.1-0.62c0-0.05-0.01-0.09-0.01-0.14c-0.14-0.01-0.27-0.02-0.39-0.02
		c-1.77,0-3.07,0.55-3.78,1.54c0.75-0.54,1.77-0.84,3.06-0.84C311.76,33.21,312.13,33.23,312.5,33.28z"/>
	<path class="st1" d="M310.08,38.82c1.15,0,2-0.37,2.64-1.16l-0.05,0.99h1.45c0.16-1.18,0.49-3.28,0.67-4.39
		c0.13-0.8,0.21-1.41,0.2-1.9c0-1.84-1.14-2.81-3.31-2.81c-0.76,0-1.46,0.1-2.37,0.33c-0.1,0.6-0.25,1.52-0.26,1.63
		c0.42-0.14,1.44-0.44,2.67-0.43c1.18,0,1.62,0.24,1.62,0.87c0,0.17-0.02,0.31-0.1,0.62c-0.22-0.03-0.44-0.05-0.64-0.06
		c0.01,0.04,0.01,0.09,0.01,0.14c0,0.17-0.02,0.3-0.1,0.62c-0.37-0.05-0.74-0.07-1.03-0.07c-1.29,0-2.31,0.3-3.06,0.84
		c-0.42,0.58-0.64,1.3-0.64,2.16C307.77,37.75,308.71,38.82,310.08,38.82z M310.32,35.26c0.24-0.6,0.92-0.91,2.05-0.91
		c0.18,0,0.3,0.01,0.56,0.04c-0.03,1.09-0.48,1.91-1.14,2.24c-0.32,0.53-0.81,0.86-1.39,0.86c-0.55,0-0.9-0.38-0.9-0.98
		C309.49,35.9,309.76,35.49,310.32,35.26z"/>
	<path class="st1" d="M284.32,36.47c0,0.49,0.26,0.71,0.86,0.71c0.29,0,0.51-0.03,0.68-0.09l-0.25,1.59c0.2-0.05,0.41-0.1,0.64-0.17
		l0.29-1.84c-0.02-0.09-0.04-0.17-0.06-0.26c-0.16,0.04-0.34,0.07-0.58,0.07c-0.6,0-0.86-0.21-0.86-0.71c0-0.26,0.32-2.03,0.6-3.69
		h-0.61C284.74,33.9,284.32,36.17,284.32,36.47z"/>
	<path class="st1" d="M283.89,27.63c0,0-0.05,0.27-0.12,0.7h1.9l-0.29,1.45h1.51l-0.24,1.6h0.39l0.34-2.3h-1.29l0.29-1.45h0H283.89z
		"/>
	<path class="st1" d="M285.38,29.77l0.29-1.45h-1.9c-0.26,1.53-0.86,5.14-0.98,5.84c-0.16,1.02-0.36,2.13-0.35,2.55
		c0,1.36,0.7,2.1,1.99,2.1c0.39,0,0.76-0.05,1.17-0.14l0.25-1.59c-0.17,0.06-0.39,0.09-0.68,0.09c-0.6,0-0.86-0.22-0.86-0.71
		c0-0.3,0.42-2.57,0.71-4.39h0.61c0.04-0.24,0.08-0.47,0.11-0.7h0.9l0.24-1.6H285.38z"/>
	<path class="st1" d="M286.59,36.39c-0.03,0.01-0.07,0.02-0.1,0.02c0.02,0.09,0.04,0.17,0.06,0.26L286.59,36.39z"/>
	<path class="st1" d="M291.8,32.75h-2.04c0.07-0.35,0.19-0.65,0.33-0.9c-0.51,0.22-0.88,0.77-1.05,1.6h2.77
		C291.81,33.37,291.85,33.07,291.8,32.75z"/>
	<path class="st1" d="M291.02,37.35c0.9,0,1.71-0.18,2.6-0.6l-0.32,1.83c0.21-0.05,0.42-0.08,0.63-0.14l0.42-2.38
		c-0.9,0.42-1.71,0.6-2.6,0.6c-1.18,0-1.98-0.39-2.15-1.27h-0.75C288.68,36.77,289.56,37.35,291.02,37.35z"/>
	<path class="st1" d="M294.14,33.03c0,0.52-0.05,1.03-0.17,1.66h0.58c0.22-0.97,0.31-1.65,0.31-2.36c0-2.12-1.32-3.47-3.38-3.47
		c-1.21,0-2.27,0.57-3.04,1.51c0.66-0.51,1.45-0.81,2.32-0.81C292.82,29.56,294.14,30.91,294.14,33.03z"/>
	<path class="st1" d="M291.36,38.82c0.66,0,1.3-0.1,1.94-0.24l0.32-1.83c-0.9,0.42-1.71,0.6-2.6,0.6c-1.46,0-2.35-0.58-2.18-1.97
		h0.75c-0.04-0.21-0.06-0.43-0.03-0.7h4.41c0.11-0.62,0.17-1.14,0.17-1.66c0-2.12-1.32-3.47-3.38-3.47c-0.87,0-1.65,0.3-2.32,0.81
		c-0.84,1.02-1.34,2.47-1.34,4.17C287.1,37.35,288.56,38.82,291.36,38.82z M290.09,31.85c0.3-0.52,0.73-0.81,1.27-0.81
		c1.43,0,1.18,1.51,1.17,1.71h-0.72c0.04,0.32,0,0.62,0,0.7h-2.77C289.21,32.62,289.58,32.07,290.09,31.85z"/>
	<path class="st1" d="M281.84,29.75l-0.23,1.45c0.2,0.02,0.4,0.04,0.6,0.07l0.36-2.22c-0.65-0.1-1.64-0.19-2.22-0.19
		c-1.67,0-2.68,0.52-3.24,1.31c0.59-0.38,1.4-0.61,2.51-0.61C280.2,29.56,281.19,29.64,281.84,29.75z"/>
	<path class="st1" d="M280.34,32.95c-1.06-0.49-1.18-0.59-1.18-1.04c0-0.01,0.01-0.02,0.01-0.04c-0.48,0.09-0.73,0.34-0.73,0.74
		c0,0.45,0.12,0.56,1.18,1.04c1.26,0.58,1.78,1.35,1.78,2.67c0,0.78-0.16,1.4-0.48,1.89c0.35-0.22,0.62-0.51,0.82-0.87
		c0-0.45,0.18-1.45,0.33-2.4C281.9,34.03,281.37,33.42,280.34,32.95z"/>
	<path class="st1" d="M275.96,36.32c0,0-0.06,0.39-0.13,0.85c0.57,0.14,1.11,0.23,1.67,0.23c0.93,0,1.37-0.25,1.43-0.77
		c-0.2,0.04-0.42,0.07-0.7,0.07C277.46,36.7,276.76,36.58,275.96,36.32z"/>
	<path class="st1" d="M282.06,34.94c-0.15,0.95-0.33,1.95-0.33,2.4c0.25-0.46,0.39-1.03,0.39-1.72
		C282.12,35.37,282.1,35.15,282.06,34.94z"/>
	<path class="st1" d="M279.62,33.65c-1.06-0.49-1.18-0.59-1.18-1.04c0-0.4,0.25-0.64,0.73-0.74c0.02-0.49,0.43-0.75,1.23-0.75
		c0.34,0,0.77,0.03,1.21,0.07l0.23-1.45c-0.65-0.1-1.64-0.19-2.22-0.19c-1.11,0-1.92,0.23-2.51,0.61c-0.38,0.54-0.55,1.21-0.55,1.93
		c0,1.21,0.59,2.05,1.92,2.67c1.02,0.48,1.18,0.62,1.18,1.06c0,0.43-0.24,0.68-0.75,0.8c-0.05,0.52-0.49,0.77-1.43,0.77
		c-0.56,0-1.1-0.09-1.67-0.23c-0.09,0.6-0.2,1.31-0.21,1.37c0.57,0.13,1.08,0.24,2.62,0.28c1.17,0,2.05-0.21,2.68-0.61
		c0.32-0.49,0.48-1.11,0.48-1.89C281.4,35,280.88,34.23,279.62,33.65z"/>
	<path class="st1" d="M324.57,28.97c-0.72,0-1.4,0.29-2,0.78c0.4-0.21,0.83-0.34,1.27-0.34c0.98,0,1.72,0.66,2.41,1.56l0.21-1.27
		C325.91,29.2,325.3,28.97,324.57,28.97z"/>
	<path class="st1" d="M323.09,34.55c0-0.96,0.21-1.77,0.57-2.34c-0.78,0.41-1.29,1.55-1.29,3.04c0,1.25,0.43,1.89,1.29,1.89
		c0.58,0,1.08-0.33,1.43-0.89c-0.22,0.12-0.45,0.19-0.7,0.19C323.52,36.44,323.09,35.81,323.09,34.55z"/>
	<polygon class="st1" points="327.49,38.65 328.1,38.65 330.02,26.88 327.53,26.88 327.42,27.58 329.29,27.58 	"/>
	<path class="st1" d="M323.84,29.41c-0.44,0-0.87,0.12-1.27,0.34c-1.24,1.02-2.1,2.94-2.1,5.09c0,2.39,1.21,3.97,3.04,3.97
		c0.92,0,1.63-0.32,2.32-1.06l-0.12,0.89h1.77l1.81-11.08h-1.88l-0.44,2.7c-0.17-0.22-0.34-0.41-0.52-0.57l-0.21,1.27
		C325.56,30.07,324.82,29.41,323.84,29.41z M325.08,36.25c-0.35,0.56-0.85,0.89-1.43,0.89c-0.86,0-1.29-0.63-1.29-1.89
		c0-1.49,0.51-2.63,1.29-3.04c0.34-0.55,0.82-0.88,1.39-0.88c0.87,0,1.34,0.66,1.34,1.88C326.38,34.7,325.87,35.83,325.08,36.25z"/>
	<path class="st1" d="M318.51,31.21c0,0,1.09,0.37,2.14,0.59c0,0,0,0,0.01,0c0.23-1.2,0.64-2.25,0.96-2.78
		c-1.06-0.22-1.65,0.38-2.42,1.51c0.06-0.49,0.17-0.97,0.15-1.45h-2.32c-0.02,0.23-0.06,0.47-0.09,0.7h1.68
		C318.63,29.94,318.59,30.42,318.51,31.21z"/>
	<path class="st1" d="M317.5,38.65h0.62c0.47-3.06,0.76-4.82,1.12-5.8c-0.32,0.26-0.63,0.61-1.05,0.99
		C318.02,35.14,317.79,36.76,317.5,38.65z"/>
	<polygon class="st1" points="318.51,31.22 318.51,31.21 318.51,31.21 	"/>
	<path class="st1" d="M320.65,31.8c-1.05-0.22-2.14-0.59-2.14-0.59c0,0,0,0.01,0,0.01l0-0.01l0,0c0.08-0.79,0.12-1.27,0.11-1.43
		h-1.68c-0.32,2.74-0.82,5.5-1.23,8.23l-0.12,0.64h1.9c0.29-1.89,0.52-3.51,0.69-4.8c0.42-0.38,0.74-0.73,1.05-0.99
		C319.57,31.96,319.97,31.73,320.65,31.8z"/>
	<path class="st1" d="M300.86,29.02C300.86,29.02,300.86,29.02,300.86,29.02c-0.03-0.01-0.05-0.01-0.08-0.01
		C300.8,29.01,300.83,29.02,300.86,29.02C300.86,29.02,300.86,29.02,300.86,29.02z"/>
	<path class="st1" d="M297.79,30.74l0.65-0.15c0.64-0.84,1.18-1.69,2.26-1.59c-0.95-0.13-1.53,0.46-2.26,1.53
		c0.06-0.49,0.17-0.97,0.15-1.45h-2.32c-0.02,0.23-0.06,0.47-0.09,0.7h1.68C297.88,30.1,297.84,30.42,297.79,30.74z"/>
	<path class="st1" d="M297.44,33.68c-0.13,1.08-0.33,2.64-0.69,4.97h0.62c0.43-2.78,0.7-4.49,1.02-5.52c0,0.01-0.01,0.01-0.01,0.02
		L297.44,33.68z"/>
	<polygon class="st1" points="300.86,29.02 300.86,29.02 300.86,29.02 	"/>
	<path class="st1" d="M299.9,31.8c0.23-1.19,0.64-2.24,0.95-2.77c-0.03,0-0.05-0.01-0.08-0.02c-0.03,0-0.05-0.01-0.08-0.01
		c-1.08-0.1-1.62,0.74-2.26,1.59l-0.65,0.15c0.05-0.32,0.09-0.64,0.08-0.96h-1.68c-0.32,2.74-0.82,5.5-1.23,8.23l-0.11,0.64h1.9
		c0.35-2.33,0.56-3.89,0.69-4.97l0.95-0.53c0-0.01,0.01-0.01,0.01-0.02C298.75,32.01,299.16,31.72,299.9,31.8z"/>
	<path class="st1" d="M329.2,37.9c0,0.41,0.34,0.75,0.75,0.75c0.41,0,0.75-0.34,0.75-0.75c0-0.42-0.34-0.75-0.75-0.75
		C329.54,37.15,329.2,37.49,329.2,37.9z M330.52,37.9c0,0.31-0.25,0.57-0.57,0.57c-0.31,0-0.57-0.26-0.57-0.57
		c0-0.31,0.26-0.57,0.57-0.57C330.27,37.33,330.52,37.59,330.52,37.9z"/>
	<path class="st1" d="M329.7,38.23h0.15v-0.26h0.11l0.1,0.26h0.17l-0.12-0.29c0.07-0.03,0.11-0.1,0.11-0.17
		c0-0.07-0.03-0.13-0.08-0.16c-0.05-0.03-0.11-0.03-0.17-0.03h-0.28V38.23z M329.85,37.69h0.08c0.03,0,0.07,0,0.1,0.01
		c0.02,0.01,0.04,0.04,0.04,0.07c0,0.03-0.01,0.06-0.04,0.08c-0.03,0.02-0.06,0.01-0.09,0.01h-0.08V37.69z"/>
	<path class="st5" d="M442.51,27.64c-0.32,0.88-0.88,2.3-0.85,2.24c0,0-2.02,5.2-2.54,6.55h5.3c-0.26-1.17-1.48-6.76-1.48-6.76
		L442.51,27.64z"/>
	<path class="st5" d="M454.53,3h-83.75C368.14,3,366,5.14,366,7.79v50.25c0,2.64,2.14,4.79,4.79,4.79h83.75
		c2.64,0,4.79-2.14,4.79-4.79V7.79C459.32,5.14,457.18,3,454.53,3z M385.62,44.69l-5.66-20.3c-1.97-1.1-4.23-1.98-6.75-2.6
		l0.08-0.49h10.29l0,0c1.39,0.05,2.51,0.49,2.89,1.98l2.18,10.5c0.03,0.08,0.06,0.17,0.09,0.25l0.67,3.25l6.25-15.97v0h6.76
		l-10.05,23.38L385.62,44.69z M401.08,44.72l3.99-23.42h6.38l-3.99,23.42H401.08z M418.48,45c-2.86-0.03-5.62-0.6-7.11-1.25
		l0.9-5.24l0.82,0.37c2.1,0.87,3.45,1.23,6.01,1.23c1.83,0,3.8-0.72,3.82-2.29c0.01-1.03-0.82-1.76-3.31-2.91
		c-2.42-1.12-5.63-3-5.59-6.36c0.04-4.55,4.48-7.73,10.79-7.73c2.47,0,4.46,0.51,5.72,0.98l-0.87,5.08l-0.57-0.27
		c-1.18-0.47-2.69-0.93-4.78-0.9c-2.5,0-3.66,1.04-3.66,2.01c-0.01,1.1,1.35,1.82,3.58,2.9c3.68,1.67,5.38,3.7,5.36,6.36
		C429.55,41.86,425.19,45,418.48,45z M446.19,44.71c0,0-0.59-2.69-0.78-3.51c-0.93,0-7.44-0.01-8.18-0.01
		c-0.25,0.63-1.34,3.52-1.34,3.52h-6.7l9.48-21.46c0.67-1.53,1.81-1.94,3.34-1.94h4.93v0l5.17,23.41H446.19z"/>
	<polygon class="st1" points="405.07,21.3 401.08,44.72 407.46,44.72 411.45,21.3 	"/>
	<path class="st1" d="M424.24,30.63c-2.23-1.08-3.6-1.81-3.58-2.9c0-0.97,1.16-2.01,3.66-2.01c2.09-0.03,3.6,0.42,4.78,0.9
		l0.57,0.27l0.87-5.08c-1.26-0.47-3.25-0.98-5.72-0.98c-6.31,0-10.75,3.18-10.79,7.73c-0.04,3.37,3.17,5.24,5.59,6.36
		c2.49,1.15,3.32,1.88,3.31,2.91c-0.02,1.57-1.98,2.29-3.82,2.29c-2.56,0-3.91-0.35-6.01-1.23l-0.82-0.37l-0.9,5.24
		c1.49,0.65,4.25,1.22,7.11,1.25c6.71,0,11.07-3.14,11.12-8C429.62,34.33,427.92,32.3,424.24,30.63z"/>
	<path class="st1" d="M395.66,21.3L395.66,21.3l-6.25,15.97l-0.67-3.25c-0.03-0.08-0.06-0.17-0.09-0.25l0.06,0.26
		c-1.51-3.86-4.47-7.27-8.76-9.66l5.66,20.3l6.75-0.01l10.05-23.38H395.66z"/>
	<path class="st1" d="M446.95,21.3h-4.93c-1.53,0-2.67,0.42-3.34,1.94l-9.48,21.46h6.7c0,0,1.1-2.89,1.34-3.52
		c0.73,0,7.24,0.01,8.18,0.01c0.19,0.82,0.78,3.51,0.78,3.51h5.92L446.95,21.3L446.95,21.3z M439.12,36.42
		c0.53-1.35,2.54-6.55,2.54-6.55c-0.04,0.06,0.52-1.36,0.85-2.24l0.43,2.02c0,0,1.22,5.59,1.48,6.76H439.12z"/>
	<path class="st6" d="M388.65,33.78l-2.18-10.5c-0.39-1.48-1.51-1.93-2.89-1.98l0,0h-10.29l-0.08,0.49c2.52,0.61,4.78,1.5,6.75,2.6
		l-0.05-0.18C383.86,26.19,387.41,30.1,388.65,33.78z"/>
	<path class="st6" d="M388.71,34.04l-0.06-0.26c-1.24-3.67-4.79-7.59-8.75-9.57l0.05,0.18C384.24,26.77,387.2,30.18,388.71,34.04z"
		/>
	<path class="st7" d="M566.8,1.66h-73.9c-2.87,0-5.2,2.33-5.2,5.2v50.28c0,2.87,2.33,5.2,5.2,5.2h73.9c2.87,0,5.2-2.33,5.2-5.2V6.86
		C572,3.98,569.67,1.66,566.8,1.66z M506.5,31.2v0.12h-6.93l-0.72-1.91h-1.55l-0.72,1.79l-0.04,0.12h-0.08h-6.1h-0.05l0.05-0.12
		l2.75-6.1l2.39-5.62h5.14h0.12l0.6,1.43v-1.43h1.79h4.3l1.31,2.99l1.32-2.99h19.24c0.96,0,1.67,0.24,2.27,0.72v-0.6v-0.12h5.38
		v0.72c0.96-0.48,2.03-0.72,3.35-0.72h7.65l0.72,1.43v-1.43h5.62l0.72,1.43v-1.43h0h5.38V31.2h-5.26h-0.12h-0.24l-1.08-1.79V30v1.19
		h-6.93l-0.72-1.91h-1.67l-0.72,1.91h-3.59c-1.43,0-2.51-0.36-3.23-0.72v0.72h-8.6v-2.63c0-0.36,0-0.36-0.24-0.36h-0.24v3.11h-0.12
		h-13.74h-2.75V31.2v-1.31l-0.6,1.43h-3.47l-0.6-1.43V31.2z M565.66,41.72c0,0.04-0.01,0.08-0.01,0.12c-0.1,1.39-0.8,2.56-1.9,3.22
		c-0.72,0.48-1.79,0.6-2.87,0.6h-5.14v-0.24v-0.48c-0.6,0.48-1.67,0.72-2.75,0.72h-16.25v-0.24v-2.51c0-0.36,0-0.36-0.36-0.36h-0.24
		v2.87v0.24h-5.38v-0.24v-2.99c-0.84,0.36-1.91,0.36-2.75,0.36h-0.6v1.55v1.2h-0.12h-0.12h-0.27h-6.06h-0.12l-1.5-1.73l-1.73,1.73
		h-10.52V34.77v-0.94v-0.36h9.44h0.81h0.5l1.55,1.79l1.67-1.79h7.17c0.72,0,2.15,0.12,2.75,0.72v-0.36v-0.36h6.45
		c0.6,0,1.91,0.12,2.63,0.72v-0.36v-0.36h9.8v0.72c0.48-0.48,1.55-0.72,2.39-0.72h5.5v0.72c0,0,0.9-0.72,1.65-0.72
		c0.75,0,5.75,0,5.75,0v0.36h0.01v5.38c0.36,0.6,0.6,1.43,0.6,2.27C565.66,41.56,565.66,41.63,565.66,41.72L565.66,41.72z"/>
	<path class="st7" d="M553.47,38.73h-1.08c-0.24,0-0.48,0-0.72-0.12c-0.24-0.12-0.48-0.24-0.48-0.6c0-0.24,0-0.48,0.24-0.6
		c0.24-0.12,0.48-0.12,0.84-0.12h3.7v-2.03h-3.94c-2.15,0-2.87,1.31-2.87,2.51c0,2.63,2.27,2.51,4.18,2.63
		c0.36,0,0.6,0.12,0.72,0.24c0.12,0.12,0.24,0.36,0.24,0.6c0,0.24-0.12,0.48-0.24,0.6c-0.24,0.24-0.48,0.24-0.84,0.24h-3.82v1.79
		h3.82c2.03,0,3.11-0.84,3.11-2.63c0-0.84-0.24-1.43-0.6-1.79C555.26,38.97,554.54,38.73,553.47,38.73z"/>
	<path class="st7" d="M562.52,38.92c-0.36-0.13-0.76-0.19-1.28-0.19h-0.96h-0.12c-0.24,0-0.48,0-0.72-0.12
		c-0.36-0.12-0.48-0.24-0.48-0.6c0-0.24,0.12-0.48,0.24-0.6c0.24-0.12,0.48-0.12,0.84-0.12h0.12h0.96h2.63v-2.03h-3.94
		c-0.22,0-0.42,0.02-0.62,0.04c-1.6,0.3-2.25,1.33-2.25,2.47c0,2.63,2.27,2.51,4.18,2.63c0.36,0,0.6,0.12,0.72,0.24
		c0.12,0.12,0.24,0.36,0.24,0.6c0,0.24-0.12,0.48-0.24,0.6c-0.24,0.24-0.48,0.24-0.84,0.24h-3.82v1.79H561
		c1.2,0,2.03-0.36,2.51-0.84c0.48-0.48,0.72-1.07,0.72-1.79c0-0.15-0.02-0.29-0.04-0.43C563.94,39.53,562.85,39.04,562.52,38.92z"/>
	<polygon class="st7" points="541.52,43.87 548.21,43.87 548.21,42.08 543.55,42.08 543.55,40.4 548.09,40.4 548.09,38.73 
		543.55,38.73 543.55,37.17 548.21,37.17 548.21,35.38 541.52,35.38 	"/>
	<rect x="533.27" y="21.16" class="st7" width="2.03" height="8.37"/>
	<path class="st7" d="M526.1,26.54h2.15c0.56,0,0.9,0,1.08,0.12c0.12,0.05,0.24,0.13,0.35,0.24c0.36,0.48,0.36,1.2,0.36,1.67v0.96
		h1.79v-1.67c0-0.07,0-0.14,0-0.21c0,0,0-0.01,0-0.01c0-0.01,0-0.01,0-0.02c0-0.01,0-0.02,0-0.03c-0.01-0.65-0.19-1.1-0.42-1.4
		c-0.03-0.05-0.07-0.09-0.12-0.14c0,0-0.01,0-0.01-0.01c-0.36-0.37-0.76-0.45-0.76-0.45c0.59-0.24,1.4-0.93,1.43-2.2
		c-0.01-0.92-0.37-1.51-0.95-1.86c-0.6-0.36-1.32-0.36-2.39-0.36h-4.54v8.37h2.03V26.54z M526.1,22.95h2.39c0.36,0,0.72,0,0.96,0.12
		c0.15,0.08,0.3,0.2,0.36,0.41l0,0c0,0.01,0,0.02,0,0.03c0.01,0.03,0.02,0.07,0.02,0.11c0.07,0.42-0.06,0.73-0.17,0.9
		c-0.03,0.05-0.06,0.09-0.09,0.13c-0.02,0.02-0.03,0.03-0.03,0.03l0,0c-0.03,0.03-0.06,0.05-0.1,0.07c-0.24,0.12-0.6,0.12-0.96,0.12
		h-2.39V22.95z"/>
	<path class="st7" d="M540.2,29.65h2.27l0.72-1.91h4.18l0.72,1.79h2.03v0h2.02v-1.09l0.01,0.01v-5.26l3.82,6.33h2.63v-8.25h-2.03
		v5.86l-3.47-5.86h-2.99v4.66v0.24v2.7v0.41l-3.35-8.01h-1.79h-1.2l-2.75,6.57h-0.84c-0.6,0-1.08-0.12-1.43-0.48
		c-0.48-0.48-0.6-1.08-0.6-2.03c0-0.84,0.24-1.55,0.6-1.91c0.48-0.36,0.84-0.48,1.55-0.48h1.91v-1.79h-1.91
		c-1.31,0-2.39,0.24-2.99,0.96c-0.84,0.96-1.08,2.15-1.08,3.35c0,1.55,0.36,2.51,1.08,3.23C538.05,29.41,539.25,29.65,540.2,29.65z
		 M545.34,22.59l1.31,3.35h-2.75L545.34,22.59z"/>
	<polygon class="st7" points="522.75,27.85 518.09,27.85 518.09,26.18 522.63,26.18 522.63,24.51 518.09,24.51 518.09,22.95 
		522.75,22.95 522.75,21.16 516.06,21.16 516.06,29.65 522.75,29.65 	"/>
	<path class="st7" d="M528.25,35.5h-6.33l-2.51,2.75l-0.06,0.06l-0.45-0.49l-2.12-2.32h-7.77v8.37h7.65l2.63-2.75l0.11,0.13
		l0.01-0.01l2.29,2.63h3.93v-1.31v-0.72v-0.72v-0.36h2.39c1.79,0,3.47-0.48,3.47-2.87c0-0.31-0.04-0.59-0.1-0.84
		C530.86,35.81,529.48,35.5,528.25,35.5z M515.7,42.2h-4.9V40.4h4.42v-1.67h-4.42v-1.55h5.02l2.15,2.51L515.7,42.2z M523.59,43.15
		l-3.11-3.47l3.11-3.35V43.15z M528.25,39.33h-2.63v-2.15h2.51c0.72,0,1.2,0.36,1.32,1.08C529.45,38.97,528.97,39.33,528.25,39.33z"
		/>
	<path class="st7" d="M508.97,29.53h0.64h0.09l2.78-6.3v0l0.12-0.27v5.86v0.72h0.72h1.2v-8.37h-3.23l-2.39,5.74l-0.04,0.12
		l-1.08-2.46l-1.51-3.28h0l-0.06-0.12h-2.45h-0.72v8.01l-3.35-8.01h-2.99l-3.54,8.37h2.1l0.84-1.79h4.06l0.84,1.79h4.06v-6.57
		l2.87,6.57H508.97z M496.82,25.94l1.32-3.35l1.31,3.35H496.82z"/>
	<path class="st7" d="M540.32,37.65c0-0.96-0.48-1.55-1.07-1.91c-0.6-0.36-1.44-0.36-2.39-0.36h-4.54v8.49h2.03v-3.11h2.15
		c0.72,0,1.2,0,1.43,0.36c0.36,0.36,0.36,1.2,0.36,1.67v1.08h2.03V42.2c0-0.72-0.12-1.2-0.36-1.55c-0.12-0.24-0.48-0.48-1.08-0.72
		C539.49,39.68,540.32,38.97,540.32,37.65z M538.17,38.25c0,0.36-0.12,0.72-0.36,0.84c-0.24,0.12-0.6,0.12-0.96,0.12h-2.39v-1.91
		h2.39c0.36,0,0.72,0,0.96,0.12C538.05,37.53,538.29,37.77,538.17,38.25z"/>
	<path class="st8" d="M489.2,1.66L489.2,1.66c-2.87,0-5.2,2.33-5.2,5.2C484,3.98,486.33,1.66,489.2,1.66z"/>
	<path class="st8" d="M484,57.14L484,57.14c0,2.87,2.33,5.2,5.2,5.2h3.7c0,0,0,0,0,0h-3.7C486.33,62.34,484,60.02,484,57.14z"/>
	<path class="st8" d="M487.7,57.14V6.86c0-2.87,2.33-5.2,5.2-5.2h-3.7c-2.87,0-5.2,2.33-5.2,5.2v50.28c0,2.87,2.33,5.2,5.2,5.2h3.7
		C490.03,62.34,487.7,60.01,487.7,57.14z"/>
	<polygon class="st1" points="496.82,25.94 499.45,25.94 498.14,22.59 	"/>
	<polygon class="st1" points="510.8,37.17 510.8,38.73 515.23,38.73 515.23,40.4 510.8,40.4 510.8,42.2 515.7,42.2 517.97,39.68 
		515.82,37.17 	"/>
	<polygon class="st1" points="545.34,22.59 543.91,25.94 546.66,25.94 	"/>
	<polygon class="st1" points="523.59,43.15 523.59,36.34 520.48,39.68 	"/>
	<path class="st1" d="M528.13,37.17h-2.51v2.15h2.63c0.72,0,1.2-0.36,1.2-1.08C529.33,37.53,528.85,37.17,528.13,37.17z"/>
	<path class="st1" d="M537.81,37.41c-0.24-0.12-0.6-0.12-0.96-0.12h-2.39v1.91h2.39c0.36,0,0.72,0,0.96-0.12
		c0.24-0.12,0.36-0.48,0.36-0.84C538.29,37.77,538.05,37.53,537.81,37.41z"/>
	<path class="st1" d="M510.56,31.32l0.6-1.43v1.31v0.12h2.75h13.74h0.12v-3.11h0.24c0.24,0,0.24,0,0.24,0.36v2.63h8.6v-0.72
		c0.72,0.36,1.79,0.72,3.23,0.72h3.59l0.72-1.91h1.67l0.72,1.91h6.93V30v-0.6l1.08,1.79h0.24h0.12h5.26V19.49h-5.38h0v1.43
		l-0.72-1.43h-5.62v1.43l-0.72-1.43h-7.65c-1.31,0-2.39,0.24-3.35,0.72v-0.72h-5.38v0.12v0.6c-0.6-0.48-1.31-0.72-2.27-0.72h-19.24
		l-1.32,2.99l-1.31-2.99h-4.3h-1.79v1.43l-0.6-1.43h-0.12h-5.14l-2.39,5.62l-2.75,6.1l-0.05,0.12h0.05h6.1h0.08l0.04-0.12l0.72-1.79
		h1.55l0.72,1.91h6.93V31.2v-1.31l0.6,1.43H510.56z M537.33,22.12c0.6-0.72,1.67-0.96,2.99-0.96h1.91v1.79h-1.91
		c-0.72,0-1.07,0.12-1.55,0.48c-0.36,0.36-0.6,1.08-0.6,1.91c0,0.96,0.12,1.55,0.6,2.03c0.36,0.36,0.84,0.48,1.43,0.48h0.84
		l2.75-6.57h1.2h1.79l3.35,8.01v-0.41v-2.7v-0.24v-4.66h2.99l3.47,5.86v-5.86h2.03v8.25h0v0h0v0h-2.63l-3.82-6.33v5.26l-0.01-0.01
		v1.09h-2.02v0h-2.03l-0.72-1.79h-4.18l-0.72,1.91h-2.27c-0.96,0-2.15-0.24-2.87-0.96c-0.72-0.72-1.08-1.67-1.08-3.23
		C536.26,24.27,536.5,23.07,537.33,22.12z M533.27,21.16h2.03v8.37h-2.03V21.16z M524.07,21.16h4.54c1.07,0,1.79,0,2.39,0.36
		c0.59,0.35,0.94,0.93,0.95,1.86c-0.03,1.27-0.84,1.97-1.43,2.2c0,0,0.4,0.08,0.76,0.45c0,0,0.01,0,0.01,0.01
		c0.05,0.05,0.08,0.1,0.12,0.14c0.23,0.3,0.41,0.75,0.42,1.4c0,0.01,0,0.02,0,0.03c0,0.01,0,0.01,0,0.02c0,0,0,0.01,0,0.01
		c0,0.07,0,0.13,0,0.21v1.67h-1.79v-0.96c0-0.48,0-1.2-0.36-1.67c-0.11-0.11-0.23-0.19-0.35-0.24c-0.18-0.12-0.52-0.12-1.08-0.12
		h-2.15v2.99h-2.03V21.16z M516.06,21.16h6.69v1.79h-4.66v1.55h4.54v1.67h-4.54v1.67h4.66v1.79h-6.69V21.16z M505.07,22.95v6.57H501
		l-0.84-1.79h-4.06l-0.84,1.79h-2.1l3.54-8.37h2.99l3.35,8.01v-8.01h0.72h2.45l0.06,0.12h0l1.51,3.28l1.08,2.46l0.04-0.12l2.39-5.74
		h3.23v8.37h0h0h-1.2h-0.72v-0.72v-5.86l-0.12,0.27v0l-2.78,6.3h-0.09h-0.64h-1.03L505.07,22.95z"/>
	<rect x="558.61" y="29.53" class="st1" width="0" height="0"/>
	<path class="st1" d="M529.45,24.75c0.04-0.02,0.07-0.04,0.1-0.07l0,0c0,0,0.01-0.01,0.03-0.03c0.03-0.04,0.07-0.08,0.09-0.13
		c0.11-0.17,0.23-0.48,0.17-0.9c0-0.04-0.01-0.07-0.02-0.11c0-0.01,0-0.02,0-0.03l0,0c-0.06-0.2-0.21-0.33-0.36-0.41
		c-0.24-0.12-0.6-0.12-0.96-0.12h-2.39v1.91h2.39C528.85,24.87,529.21,24.87,529.45,24.75z"/>
	<path class="st1" d="M565.06,39.21v-5.38h-0.01v-0.36c0,0-5.01,0-5.75,0c-0.75,0-1.65,0.72-1.65,0.72v-0.72h-5.5
		c-0.84,0-1.91,0.24-2.39,0.72v-0.72h-9.8v0.36v0.36c-0.72-0.6-2.03-0.72-2.63-0.72h-6.45v0.36v0.36c-0.6-0.6-2.03-0.72-2.75-0.72
		h-7.17l-1.67,1.79l-1.55-1.79h-0.5h-0.81h-9.44v0.36v0.94v10.77h10.52l1.73-1.73l1.5,1.73h0.12h6.06h0.27h0.12h0.12v-1.2v-1.55h0.6
		c0.84,0,1.91,0,2.75-0.36v2.99v0.24h5.38v-0.24v-2.87h0.24c0.36,0,0.36,0,0.36,0.36v2.51v0.24h16.25c1.08,0,2.15-0.24,2.75-0.72
		v0.48v0.24h5.14c1.07,0,2.15-0.12,2.87-0.6c1.1-0.66,1.79-1.83,1.9-3.22c0-0.04,0.01-0.08,0.01-0.12l-0.01-0.01
		c0-0.08,0.01-0.15,0.01-0.23C565.66,40.64,565.42,39.8,565.06,39.21z M528.01,40.76h-2.39v0.36v0.72v0.72v1.31h-3.93l-2.29-2.63
		l-0.01,0.01l-0.11-0.13l-2.63,2.75h-7.65V35.5h7.77l2.12,2.32l0.45,0.49l0.06-0.06l2.51-2.75h6.33c1.23,0,2.61,0.3,3.13,1.55
		c0.06,0.25,0.1,0.52,0.1,0.84C531.48,40.28,529.81,40.76,528.01,40.76z M539.96,40.64c0.24,0.36,0.36,0.84,0.36,1.55v1.67h-2.03
		v-1.08c0-0.48,0-1.31-0.36-1.67c-0.24-0.36-0.72-0.36-1.43-0.36h-2.15v3.11h-2.03v-8.49h4.54c0.96,0,1.79,0,2.39,0.36
		c0.6,0.36,1.07,0.96,1.07,1.91c0,1.31-0.84,2.03-1.43,2.27C539.49,40.16,539.84,40.4,539.96,40.64z M548.21,37.17h-4.66v1.55h4.54
		v1.67h-4.54v1.67h4.66v1.79h-6.69v-8.49h6.69V37.17z M553.23,43.87h-3.82v-1.79h3.82c0.36,0,0.6,0,0.84-0.24
		c0.12-0.12,0.24-0.36,0.24-0.6c0-0.24-0.12-0.48-0.24-0.6c-0.12-0.12-0.36-0.24-0.72-0.24c-1.91-0.12-4.18,0-4.18-2.63
		c0-1.2,0.72-2.51,2.87-2.51h3.94v2.03h-3.7c-0.36,0-0.6,0-0.84,0.12c-0.24,0.12-0.24,0.36-0.24,0.6c0,0.36,0.24,0.48,0.48,0.6
		c0.24,0.12,0.48,0.12,0.72,0.12h1.08c1.08,0,1.79,0.24,2.27,0.72c0.36,0.36,0.6,0.96,0.6,1.79
		C556.34,43.03,555.26,43.87,553.23,43.87z M563.51,43.03c-0.48,0.48-1.31,0.84-2.51,0.84h-3.82v-1.79H561c0.36,0,0.6,0,0.84-0.24
		c0.12-0.12,0.24-0.36,0.24-0.6c0-0.24-0.12-0.48-0.24-0.6c-0.12-0.12-0.36-0.24-0.72-0.24c-1.91-0.12-4.18,0-4.18-2.63
		c0-1.14,0.65-2.16,2.25-2.47c0.19-0.03,0.39-0.04,0.62-0.04h3.94v2.03h-2.63h-0.96h-0.12c-0.36,0-0.6,0-0.84,0.12
		c-0.12,0.12-0.24,0.36-0.24,0.6c0,0.36,0.12,0.48,0.48,0.6c0.24,0.12,0.48,0.12,0.72,0.12h0.12h0.96c0.52,0,0.92,0.06,1.28,0.19
		c0.33,0.12,1.43,0.61,1.67,1.89c0.02,0.13,0.04,0.27,0.04,0.43C564.22,41.96,563.99,42.55,563.51,43.03z"/>
	<path class="st1" d="M615.02,40.75h-0.37c-0.22,0-0.4,0.16-0.43,0.37l-0.56,3.55h0.8c1.4,0,2.85,0,3.14-1.9
		c0.11-0.67,0.02-1.15-0.26-1.48C616.88,40.75,615.98,40.75,615.02,40.75z"/>
	<path class="st1" d="M652.69,40.75h-0.37c-0.22,0-0.4,0.16-0.43,0.37l-0.56,3.55h0.8c1.4,0,2.85,0,3.14-1.9
		c0.11-0.67,0.02-1.15-0.26-1.48C654.54,40.75,653.64,40.75,652.69,40.75z"/>
	<path class="st1" d="M627.27,45.06c-1.44,0-2.61,1-2.83,2.44c-0.12,0.7,0.02,1.34,0.4,1.78c0.38,0.45,0.96,0.68,1.7,0.68
		c1.46,0,2.61-0.97,2.85-2.42c0.11-0.7-0.04-1.34-0.43-1.79C628.57,45.3,627.99,45.06,627.27,45.06z"/>
	<path class="st1" d="M664.93,45.06c-1.44,0-2.6,1-2.83,2.44c-0.12,0.7,0.02,1.34,0.4,1.78c0.38,0.45,0.97,0.68,1.7,0.68
		c1.46,0,2.61-0.97,2.85-2.42c0.11-0.7-0.04-1.34-0.43-1.79C666.23,45.3,665.65,45.06,664.93,45.06z"/>
	<path class="st1" d="M682.4,1.5h-79.96c-2.81,0-5.1,2.29-5.1,5.1v51.17c0,2.81,2.29,5.1,5.1,5.1h79.96c2.81,0,5.1-2.29,5.1-5.1V6.6
		C687.5,3.79,685.21,1.5,682.4,1.5z M635.74,10.9c0.08-0.51,0.51-0.88,1.02-0.88h7.24c2.49,0,4.44,0.53,5.52,1.76
		c0.98,1.12,1.27,2.36,0.98,4.18c-0.24-0.12-0.49-0.23-0.76-0.32c0,0,0,0,0,0c0.27,0.09,0.53,0.2,0.76,0.32c0,0,0,0,0,0
		c0.41,0.22,0.75,0.48,1.03,0.8c0.92,1.06,1.1,2.56,0.76,4.35c-0.84,4.3-3.69,5.79-7.35,5.79h-0.56c-0.45,0-0.83,0.33-0.9,0.77
		l-0.05,0.25l-0.71,4.52l-0.04,0.19c-0.07,0.44-0.45,0.77-0.9,0.77h-3.77c-0.33,0-0.59-0.3-0.54-0.63l0.43-2.75h0l-0.12,0.79h-4.47
		c-0.38,0-0.67-0.34-0.61-0.72L635.74,10.9z M615.5,47.62h-1.67c-0.36,0-0.67,0.26-0.72,0.62l-0.58,3.66
		c-0.06,0.36-0.36,0.62-0.73,0.62h-2.52c-0.27,0-0.48-0.24-0.44-0.51l2.14-13.58c0.06-0.36,0.36-0.62,0.73-0.62h5.28
		c1.77,0,3.1,0.47,3.85,1.35c0.68,0.81,0.91,1.96,0.67,3.42C620.99,45.93,618.98,47.62,615.5,47.62z M631.97,51.8
		c-0.06,0.36-0.36,0.62-0.73,0.62h-2.28c-0.27,0-0.48-0.24-0.43-0.51l0.11-0.7c0,0-1.25,1.45-3.5,1.45c-1.31,0-2.41-0.38-3.19-1.29
		c-0.84-0.99-1.18-2.41-0.94-3.9c0.46-2.98,2.85-5.1,5.65-5.1c1.22,0,2.44,0.27,2.99,1.06l0.18,0.26l0.11-0.71
		c0.03-0.21,0.22-0.37,0.43-0.37h2.53c0.27,0,0.48,0.24,0.43,0.51L631.97,51.8z M637.49,56.07h-2.54c-0.36,0-0.57-0.4-0.36-0.7
		l2.63-3.73l-2.8-8.24c-0.1-0.29,0.11-0.58,0.42-0.58h2.5c0.32,0,0.61,0.21,0.7,0.53l1.49,4.98l3.5-5.18
		c0.14-0.2,0.37-0.32,0.61-0.32h2.54c0.36,0,0.56,0.4,0.36,0.69l-8.45,12.23C637.95,55.95,637.73,56.07,637.49,56.07z M653.16,47.62
		h-1.67c-0.36,0-0.67,0.26-0.72,0.62l-0.61,3.85c-0.04,0.25-0.25,0.43-0.51,0.43h-2.71c-0.27,0-0.48-0.24-0.43-0.51l2.14-13.58
		c0.06-0.36,0.36-0.62,0.72-0.62h5.28c1.77,0,3.1,0.47,3.85,1.35c0.68,0.81,0.91,1.96,0.67,3.42
		C658.65,45.93,656.64,47.62,653.16,47.62z M669.64,51.8c-0.06,0.36-0.36,0.62-0.72,0.62h-2.28c-0.27,0-0.48-0.24-0.44-0.51
		l0.11-0.7c0,0-1.25,1.45-3.5,1.45c-1.31,0-2.41-0.38-3.19-1.29c-0.84-0.99-1.18-2.41-0.94-3.9c0.46-2.98,2.85-5.1,5.64-5.1
		c1.22,0,2.44,0.27,2.99,1.06l0.18,0.26l0.11-0.71c0.03-0.21,0.22-0.37,0.43-0.37h2.53c0.27,0,0.48,0.24,0.44,0.51L669.64,51.8z
		 M674.51,51.9c-0.06,0.36-0.36,0.62-0.72,0.62h-2.18c-0.27,0-0.48-0.24-0.43-0.51l2.17-13.83c0.03-0.21,0.22-0.37,0.43-0.37h2.44
		c0.27,0,0.48,0.24,0.43,0.51L674.51,51.9z"/>
	<path class="st9" d="M682.4,0.5h-79.96c-3.36,0-6.1,2.74-6.1,6.1v51.17c0,3.36,2.74,6.1,6.1,6.1h79.96c3.36,0,6.1-2.74,6.1-6.1V6.6
		C688.5,3.24,685.76,0.5,682.4,0.5z M688,57.77c0,3.09-2.51,5.6-5.6,5.6h-79.96c-3.09,0-5.6-2.51-5.6-5.6V6.6
		c0-3.09,2.51-5.6,5.6-5.6h79.96c3.09,0,5.6,2.51,5.6,5.6V57.77z"/>
	<path class="st9" d="M682.4,1h-79.96c-3.09,0-5.6,2.51-5.6,5.6v51.17c0,3.09,2.51,5.6,5.6,5.6h79.96c3.09,0,5.6-2.51,5.6-5.6V6.6
		C688,3.51,685.49,1,682.4,1z M687.5,57.77c0,2.81-2.29,5.1-5.1,5.1h-79.96c-2.81,0-5.1-2.29-5.1-5.1V6.6c0-2.81,2.29-5.1,5.1-5.1
		h79.96c2.81,0,5.1,2.29,5.1,5.1V57.77z"/>
	<path class="st10" d="M649.68,15.61c0.02,0.01,0.03,0.01,0.05,0.02c0.01,0,0.01,0.01,0.02,0.01c0,0,0,0,0,0
		c-0.01,0-0.01-0.01-0.02-0.01C649.71,15.62,649.69,15.61,649.68,15.61z"/>
	<polygon class="st10" points="637.93,30 637.93,30 638.21,28.24 	"/>
	<path class="st10" d="M649.7,18.75c-1.32,2.87-3.82,4.07-6.88,4.23C645.88,22.81,648.38,21.62,649.7,18.75z"/>
	<path class="st11" d="M650.44,16.38c-0.03,0.14-0.06,0.27-0.09,0.41c0.24,0.15,0.45,0.31,0.61,0.49c0.35,0.4,0.57,0.9,0.67,1.5
		c0.1,0.62,0.07,1.35-0.1,2.18c-0.19,0.95-0.48,1.78-0.89,2.46c-0.37,0.63-0.85,1.15-1.41,1.55c-0.54,0.38-1.18,0.67-1.9,0.86
		c-0.7,0.18-1.5,0.27-2.37,0.27h-0.56c-0.4,0-0.79,0.15-1.1,0.41c-0.31,0.27-0.51,0.63-0.57,1.03l-0.04,0.23l-0.71,4.53l-0.03,0.17
		c-0.01,0.05-0.02,0.08-0.04,0.1c-0.02,0.02-0.05,0.03-0.07,0.03h-3.48l0.4-2.57l-0.8-0.02l-0.43,2.75
		c-0.05,0.33,0.2,0.63,0.54,0.63h3.77c0.45,0,0.83-0.33,0.9-0.77l0.04-0.19l0.71-4.52l0.05-0.25c0.07-0.44,0.45-0.77,0.9-0.77h0.56
		c3.65,0,6.51-1.49,7.35-5.79c0.35-1.8,0.17-3.3-0.76-4.35c-0.28-0.32-0.63-0.58-1.03-0.8c0,0,0,0,0,0l0,0
		C650.49,16.09,650.47,16.24,650.44,16.38z"/>
	<path class="st11" d="M638.33,32.59h3.48c0.03,0,0.05-0.01,0.07-0.03c0.02-0.02,0.04-0.04,0.04-0.1l0.03-0.17l0.71-4.53l0.04-0.23
		c0.06-0.4,0.27-0.76,0.57-1.03c0.31-0.26,0.7-0.41,1.1-0.41h0.56c0.87,0,1.67-0.09,2.37-0.27c0.72-0.19,1.36-0.48,1.9-0.86
		c0.56-0.4,1.04-0.92,1.41-1.55c0.4-0.68,0.7-1.51,0.89-2.46c0.16-0.83,0.19-1.56,0.1-2.18c-0.1-0.6-0.32-1.1-0.67-1.5
		c-0.16-0.18-0.37-0.34-0.61-0.49c-0.17,0.72-0.38,1.38-0.65,1.96c-1.32,2.87-3.82,4.07-6.88,4.23c-0.25,0.01-0.51,0.02-0.77,0.02
		h-2.13c-0.51,0-0.94,0.37-1.02,0.87l-0.69,4.36L637.93,30l0.8,0.02L638.33,32.59z"/>
	<path class="st12" d="M649.72,15.89v0.52l0.41,0.23c0.08,0.04,0.14,0.09,0.22,0.14c0.03-0.14,0.07-0.26,0.09-0.41
		c0.03-0.15,0.05-0.29,0.07-0.43c-0.24-0.13-0.49-0.23-0.76-0.32c-0.01,0.07-0.01,0.13-0.02,0.2L649.72,15.89z"/>
	<path class="st12" d="M649.68,15.61c-0.05-0.02-0.11-0.03-0.16-0.05c-0.15-0.04-0.3-0.08-0.45-0.12c-0.16-0.03-0.31-0.06-0.48-0.09
		c-0.57-0.09-1.2-0.14-1.87-0.14h-5.68c-0.14,0-0.27,0.03-0.39,0.09c-0.26,0.13-0.46,0.37-0.5,0.68l-1.24,7.89
		c0.08-0.5,0.51-0.87,1.02-0.87h2.13c0.26,0,0.52-0.01,0.77-0.02c3.07-0.17,5.56-1.36,6.88-4.23c0.27-0.58,0.48-1.24,0.65-1.96
		c-0.07-0.05-0.14-0.09-0.22-0.14l-0.41-0.23v-0.52l0.01-0.06c0.01-0.07,0.01-0.13,0.02-0.2c-0.01,0-0.01-0.01-0.02-0.01
		C649.71,15.62,649.69,15.61,649.68,15.61z"/>
	<path class="st12" d="M650.34,16.79C650.34,16.79,650.34,16.79,650.34,16.79c0.03-0.14,0.07-0.26,0.09-0.41
		c0.03-0.15,0.05-0.29,0.07-0.43l0,0c-0.02,0.14-0.05,0.28-0.07,0.43C650.41,16.52,650.38,16.65,650.34,16.79z"/>
	<path class="st12" d="M650.34,16.79c-0.17,0.72-0.38,1.38-0.65,1.96C649.96,18.17,650.18,17.51,650.34,16.79
		C650.34,16.79,650.34,16.79,650.34,16.79z"/>
	<path class="st12" d="M639.92,23c-0.51,0-0.94,0.37-1.02,0.87l0,0C638.98,23.37,639.41,23,639.92,23z"/>
	<path class="st10" d="M633.34,30.79h4.47l0.12-0.79l-0.1,0h-4.3l2.99-18.98c0.01-0.06,0.04-0.11,0.08-0.15
		c0.04-0.04,0.1-0.06,0.16-0.06h7.24c2.4,0,4.06,0.5,4.93,1.49c0.41,0.46,0.66,0.95,0.79,1.48c0.12,0.51,0.12,1.13,0.02,1.84
		c0.27,0.09,0.53,0.2,0.76,0.32c0.28-1.82,0-3.05-0.98-4.18c-1.08-1.23-3.03-1.76-5.52-1.76h-7.24c-0.51,0-0.94,0.37-1.02,0.88
		l-3.02,19.18C632.67,30.45,632.96,30.79,633.34,30.79z"/>
	<path class="st10" d="M649.73,13.79c-0.13-0.53-0.38-1.02-0.79-1.48c-0.87-0.99-2.53-1.49-4.93-1.49h-7.24
		c-0.06,0-0.11,0.02-0.16,0.06c-0.04,0.04-0.07,0.09-0.08,0.15L633.54,30h4.3l0.1,0l0.28-1.77l0.69-4.36c0,0,0,0,0,0l0.03-0.22
		l1.21-7.67c0.05-0.3,0.24-0.55,0.5-0.68c0.12-0.06,0.25-0.09,0.39-0.09h5.68c0.67,0,1.3,0.04,1.87,0.14
		c0.16,0.03,0.32,0.06,0.48,0.09c0.15,0.03,0.3,0.07,0.45,0.12c0.06,0.02,0.11,0.03,0.16,0.05c0.02,0.01,0.03,0.01,0.05,0.02
		c0.01,0,0.01,0.01,0.02,0.01C649.84,14.91,649.85,14.3,649.73,13.79z"/>
	<polygon class="st10" points="638.9,23.87 638.9,23.87 638.9,23.87 638.21,28.24 638.9,23.87 	"/>
	<path class="st10" d="M640.64,15.3c0.12-0.06,0.25-0.09,0.39-0.09h5.68c0.67,0,1.3,0.04,1.87,0.14c0.16,0.03,0.32,0.06,0.48,0.09
		c0.15,0.03,0.3,0.07,0.45,0.12c0.06,0.02,0.11,0.03,0.16,0.05c-0.05-0.02-0.11-0.03-0.16-0.05c-0.15-0.04-0.3-0.08-0.45-0.12
		c-0.16-0.03-0.31-0.06-0.48-0.09c-0.57-0.09-1.2-0.14-1.87-0.14h-5.68C640.9,15.21,640.76,15.24,640.64,15.3
		c-0.26,0.13-0.46,0.37-0.5,0.68C640.19,15.68,640.38,15.43,640.64,15.3z"/>
	<polygon class="st10" points="640.14,15.98 638.93,23.65 638.9,23.87 638.9,23.87 	"/>
	<polygon class="st10" points="638.9,23.87 638.9,23.87 638.9,23.87 638.9,23.87 	"/>
	<path class="st10" d="M620.84,39.17c-0.75-0.88-2.08-1.35-3.85-1.35h-5.28c-0.36,0-0.67,0.26-0.73,0.62l-2.14,13.58
		c-0.04,0.27,0.16,0.51,0.44,0.51h2.52c0.36,0,0.67-0.26,0.73-0.62l0.58-3.66c0.06-0.36,0.36-0.62,0.72-0.62h1.67
		c3.48,0,5.49-1.69,6.01-5.03C621.75,41.12,621.52,39.97,620.84,39.17z M617.6,42.77c-0.29,1.9-1.74,1.9-3.14,1.9h-0.8l0.56-3.55
		c0.03-0.21,0.22-0.37,0.43-0.37h0.37c0.95,0,1.85,0,2.32,0.55C617.62,41.62,617.7,42.11,617.6,42.77z"/>
	<path class="st10" d="M632.91,42.61h-2.53c-0.22,0-0.4,0.16-0.43,0.37l-0.11,0.71l-0.18-0.26c-0.55-0.8-1.77-1.06-2.99-1.06
		c-2.79,0-5.18,2.12-5.65,5.1c-0.24,1.49,0.1,2.91,0.94,3.9c0.77,0.91,1.87,1.29,3.19,1.29c2.25,0,3.5-1.45,3.5-1.45l-0.11,0.7
		c-0.04,0.27,0.16,0.51,0.43,0.51h2.28c0.36,0,0.67-0.26,0.73-0.62l1.37-8.68C633.38,42.85,633.18,42.61,632.91,42.61z
		 M629.38,47.55c-0.24,1.45-1.39,2.42-2.85,2.42c-0.73,0-1.32-0.24-1.7-0.68c-0.37-0.44-0.52-1.08-0.4-1.78
		c0.23-1.44,1.39-2.44,2.83-2.44c0.72,0,1.3,0.24,1.69,0.69C629.34,46.21,629.49,46.84,629.38,47.55z"/>
	<path class="st10" d="M646.18,42.83h-2.54c-0.24,0-0.47,0.12-0.61,0.32l-3.5,5.18l-1.49-4.98c-0.09-0.31-0.38-0.53-0.7-0.53h-2.5
		c-0.3,0-0.51,0.3-0.42,0.58l2.8,8.24l-2.63,3.73c-0.21,0.29,0,0.7,0.36,0.7h2.54c0.24,0,0.47-0.12,0.6-0.32l8.45-12.23
		C646.74,43.23,646.54,42.83,646.18,42.83z"/>
	<path class="st11" d="M658.5,39.17c-0.75-0.88-2.08-1.35-3.85-1.35h-5.28c-0.36,0-0.67,0.26-0.72,0.62l-2.14,13.58
		c-0.04,0.27,0.16,0.51,0.43,0.51h2.71c0.25,0,0.47-0.18,0.51-0.43l0.61-3.85c0.06-0.36,0.36-0.62,0.72-0.62h1.67
		c3.48,0,5.49-1.69,6.01-5.03C659.41,41.12,659.18,39.97,658.5,39.17z M655.26,42.77c-0.29,1.9-1.74,1.9-3.14,1.9h-0.8l0.56-3.55
		c0.03-0.21,0.22-0.37,0.43-0.37h0.37c0.95,0,1.85,0,2.32,0.55C655.28,41.62,655.37,42.11,655.26,42.77z"/>
	<path class="st11" d="M670.57,42.61h-2.53c-0.22,0-0.4,0.16-0.43,0.37l-0.11,0.71l-0.18-0.26c-0.55-0.8-1.77-1.06-2.99-1.06
		c-2.79,0-5.18,2.12-5.64,5.1c-0.24,1.49,0.1,2.91,0.94,3.9c0.77,0.91,1.87,1.29,3.19,1.29c2.25,0,3.5-1.45,3.5-1.45l-0.11,0.7
		c-0.04,0.27,0.16,0.51,0.44,0.51h2.28c0.36,0,0.67-0.26,0.72-0.62l1.37-8.68C671.05,42.85,670.84,42.61,670.57,42.61z
		 M667.04,47.55c-0.24,1.45-1.39,2.42-2.85,2.42c-0.73,0-1.32-0.24-1.7-0.68c-0.37-0.44-0.51-1.08-0.4-1.78
		c0.23-1.44,1.39-2.44,2.83-2.44c0.72,0,1.3,0.24,1.69,0.69C667,46.21,667.16,46.84,667.04,47.55z"/>
	<path class="st11" d="M676.21,37.81h-2.44c-0.22,0-0.4,0.16-0.43,0.37l-2.17,13.83c-0.04,0.27,0.16,0.51,0.43,0.51h2.18
		c0.36,0,0.67-0.26,0.72-0.62l2.14-13.58C676.69,38.06,676.48,37.81,676.21,37.81z"/>
</g>
</svg>
